<?xml version="1.0" encoding="utf-8"?>
<!-- Generator: Adobe Illustrator 18.1.1, SVG Export Plug-In . SVG Version: 6.00 Build 0)  -->
<svg version="1.1" id="Layer_1" xmlns="http://www.w3.org/2000/svg" xmlns:xlink="http://www.w3.org/1999/xlink" x="0px" y="0px"
	 viewBox="0 0 264 20" enable-background="new 0 0 264 20" xml:space="preserve">
<g>
	<g>
		<g>
			<g>
				<g>
					<path d="M263,13.5c0.4,0.1,0.3-0.7,0.4-0.9C262.7,12.7,262.9,13.7,263,13.5z"/>
					<polygon points="256.4,14.6 256.6,14.3 255.5,15 					"/>
					<path d="M250.5,13.9c0.4,1.5,2.2,0,3.2,0.6l0.1,0.3l0.6-1.1C253.1,13.9,251.4,14.4,250.5,13.9z"/>
					<path d="M247.7,10.5c0.1,0.6-0.7,0.4,0.7,0.3c-0.1-0.1-0.1-0.1-0.1-0.2C248.2,10.6,248,10.6,247.7,10.5z"/>
					<path d="M248.3,10.6C248.9,10.6,248,10.1,248.3,10.6L248.3,10.6z"/>
					<path d="M245.4,10.6l0.9-0.4c-0.1-0.3-0.9-0.5-0.6-0.7C244.8,9.7,245,10,245.4,10.6z"/>
					<path d="M244.5,11.5l0.4-0.2C244.9,11.2,244.8,11.2,244.5,11.5z"/>
					<path d="M245.9,11l-1,0.3c0.1,0.2,0.1,0.7,0.4-0.1C245.3,11.7,245.5,11.3,245.9,11z"/>
					<path d="M246.4,11.3c0.4,0.4,1,0.6,0.1,1C248.1,12.3,248,11.3,246.4,11.3z"/>
					<path d="M250,15.4l0.6,0.5l0.6-0.4C250.9,15.7,250,14.9,250,15.4z"/>
					<path d="M240.4,9.3c-0.1,0.3,0.2,0.8,0.2,1.2l0.6-0.3C240.9,10,240.4,9.7,240.4,9.3z"/>
					<path d="M240.6,10.5l-1,0.4C240.4,11.1,240.6,10.8,240.6,10.5z"/>
					<polygon points="244.2,13.1 245.8,12.2 243.9,13.1 					"/>
					<polygon points="236.9,8.8 237.5,8.2 236.5,9.1 					"/>
					<path d="M234.6,8.7c0.4-0.5-0.4-1,0-1.3c-0.6,0-1.2,0.5-1.8,0.9C233.4,8,234,8.1,234.6,8.7z"/>
					<path d="M232,8.8c0.3-0.1,0.6-0.3,0.9-0.6C232.6,8.3,232.3,8.5,232,8.8z"/>
					<path d="M238.1,10.6c0-0.2-0.1-0.7-0.6-0.9l0.3,0.9C237.8,10.5,238,10.6,238.1,10.6z"/>
					<path d="M237.7,10.5L237.7,10.5c-0.4-0.1-0.7-0.1-0.8-0.2C237.1,10.4,237.3,10.5,237.7,10.5z"/>
					<path d="M238.2,10.6C238.1,10.6,238.1,10.6,238.2,10.6C238.1,10.7,238.1,10.7,238.2,10.6z"/>
					<path d="M241.9,12c-0.6,0.4-1.8,0.8-0.8,1.6C241.6,13.2,241,12.7,241.9,12z"/>
					<path d="M238.5,11.7l0.9,0.3c0-0.2-0.1-0.6,0.2-0.8L238.5,11.7z"/>
					<polygon points="238,11.9 238.5,11.7 238.1,11.6 					"/>
					<path d="M233.6,9.7c-0.5,0.3-0.9,0.3-1.4,0.3c0.5,0.2,1.1,0.4,1.6,0.4C233.9,10.2,234.2,9.8,233.6,9.7z"/>
					<path d="M235.6,10.2C235.6,10.2,235.5,10.2,235.6,10.2C235.5,10.3,235.6,10.3,235.6,10.2z"/>
					<polygon points="227,9.5 227.1,9.6 227.1,9.5 					"/>
					<path d="M233.8,10.6c0.4,0.2,0.7,0,0.9-0.2c-0.3,0.1-0.7,0.1-1,0C233.7,10.6,233.7,10.7,233.8,10.6z"/>
					<path d="M230.5,9c0.2,0.2,0.4,0.4,0.7,0.5C231,9.2,230.6,8.8,230.5,9z"/>
					<path d="M235.4,10C235.4,10,235.4,10,235.4,10C235.3,9.8,235.3,9.8,235.4,10z"/>
					<path d="M235.4,10c-0.2,0.1-0.4,0.3-0.6,0.5c0.3,0,0.5-0.1,0.7-0.2C235.4,10.2,235.4,10.1,235.4,10z"/>
					<path d="M224.9,14.7c0.2-0.8,1.3-1.4,2.2-0.4c1-0.5,0.7-3.1,0-4.7c-0.1,0.3-0.1,0.7-1.1,1c0.3,0.5,2,1.2,1.1,1.9
						c-1.3,0.3-1-0.4-1.6-0.9c0.4,1-1.8,1.2-1.6,2.7l1.2-0.4C225.1,14.2,224.6,14.5,224.9,14.7z"/>
					<path d="M228.9,9.9l0.4-0.1c-0.4-0.2-0.7-0.5-1.2-1.2c-0.7,0.3-0.9,0.6-0.9,0.8l1.9,0.3L228.9,9.9z"/>
					<path d="M231.1,10.1c-0.4,0.8-1.4,1.1-0.9,2.1c1.2,0.1,0.9-0.6,1.6-0.9C229.9,11.2,232.4,10.8,231.1,10.1c0.4,0,0.7,0,1,0
						c-0.3-0.1-0.6-0.3-0.9-0.5c0,0,0,0,0,0.1l0,0l0,0c0.1,0.1,0.1,0.2,0,0.1c0,0,0,0,0,0C231.2,9.9,231.1,10,231.1,10.1
						c-0.5-0.2-0.1-0.2,0.1-0.3c0,0,0-0.1,0-0.1c0,0,0,0,0,0l-1.9,0.3C229.7,10,230.2,10.1,231.1,10.1z"/>
					<path d="M239.9,15.4c0-0.1,0-0.1,0-0.2C239.7,15.3,239.7,15.4,239.9,15.4z"/>
					<path d="M239.2,14.8c0.1-0.1,0.3-0.4,0.7-0.3c0.4,0.3,0,0.4-0.1,0.7c0.3-0.2,1-0.5,0.2-1l-0.1,0.1c-0.7-0.4-1.5-1.6-1.4-1.7
						C238.7,13.4,238.8,14,239.2,14.8z"/>
					<path d="M235.1,12.6l-1.6,0.2l0.7,0.8l0-0.4C235.1,13.5,234.9,13,235.1,12.6z"/>
					<polygon points="226.9,9 227.2,8.1 226.2,9.3 					"/>
					<polygon points="224.9,8.9 225.1,8.1 224.5,8.5 					"/>
					<path d="M110.5,11.4l-0.5,0.2C110.3,11.5,110.4,11.4,110.5,11.4z"/>
					<path d="M113.8,11.4l0.1-0.4C113.7,11.2,113.7,11.4,113.8,11.4z"/>
					<path d="M175.3,4.2c-0.6-0.8-1.3-2-1.3-1.1l0.1,0.9C174.6,3.9,175,4,175.3,4.2z"/>
					<path d="M140.9,7.4c0.1,0.1,0.1,0.2,0.2,0.3c0.2-0.3,0.3-0.6,0.5-0.8C141.4,7,141.2,7.2,140.9,7.4z"/>
					<path d="M140.3,10.9l-0.9-0.6C139.6,10.5,139.9,10.7,140.3,10.9z"/>
					<path d="M92.6,12.6l-0.5,0.9C92.9,13.5,92.6,13,92.6,12.6z"/>
					<path d="M204.2,7c-0.5-0.4-1-0.6-1.4-0.7C203.5,6.9,203.9,7.7,204.2,7z"/>
					<path d="M111.8,2.1c-0.3,0.2-0.4,0.3-0.4,0.5C111.7,2.5,111.8,2.4,111.8,2.1z"/>
					<path d="M201.2,6.2c0.1,0.1,0.2,0.2,0.3,0.2c0.4-0.1,0.9-0.2,1.4-0.1C202.3,6,201.8,5.7,201.2,6.2z"/>
					<path d="M27.7,17.3c-0.1,0-0.1,0-0.2-0.1C27.5,17.3,27.6,17.3,27.7,17.3z"/>
					<path d="M7.6,11c0.2-0.1,0.5-0.1,0.8-0.2C8.2,10.8,8,10.8,7.6,11z"/>
					<path d="M216.8,7.6C217.3,7.6,216.9,7.5,216.8,7.6L216.8,7.6z"/>
					<path d="M218.5,11.3c-0.1,0.1-0.2,0.2-0.2,0.4C218.4,11.5,218.4,11.3,218.5,11.3z"/>
					<path d="M196.4,11.2C196.4,11.2,196.4,11.2,196.4,11.2C196.5,11.3,196.4,11.3,196.4,11.2z"/>
					<path d="M217.4,8.1c-0.1-0.1-0.3-0.2-0.5-0.3C217,7.8,217.1,7.9,217.4,8.1z"/>
					<path d="M217.4,7.7c0.1,0,0.3,0.1,0.4,0.1C217.8,7.7,217.8,7.6,217.4,7.7z"/>
					<path d="M216.2,7.6c0.2,0,0.5,0.1,0.7,0.2c-0.1-0.1-0.1-0.1-0.1-0.1C216.7,7.6,216.5,7.6,216.2,7.6z"/>
					<path d="M62.2,11.4C62.2,11.3,62.2,11.3,62.2,11.4C61.7,11.7,61.9,11.6,62.2,11.4z"/>
					<path d="M163.5,12.4C163.5,12.4,163.5,12.4,163.5,12.4C163.5,12.3,163.5,12.3,163.5,12.4L163.5,12.4z"/>
					<path d="M161.9,12.9c0.7-1,1.1-0.9,1.6-0.6l-0.3-2.5L161.9,12.9z"/>
					<path d="M102.6,11.7l1.1,0.8c-1.3,1.3-2.2,0.9-1.2,2c0.1-1.4,1.1-1.5,2.1-1.6c1-0.1,2.1-0.1,2.1-1.5l0.7,0.6
						c-0.2,0-0.2,0.1-0.4,0.1c1.4,1.3,1-2,2.8-1.6c0.6,0.2,1.1,0.6,0.6,0.9l1.4-0.7c0.4,0.1,0.3,0.5-0.1,0.5l2.1-0.2l0,0.1
						c0.3-0.4,1-1.1,1.3-1.4c0.5,0.4-0.3,0.3-0.1,0.6l1.2-0.7c0.5,0.7-0.5,1.4-1.3,1.3c1.1,2.7,1-0.7,3.3,0.9l-1.1,0.3
						c0.7,1.5,1.6,1,2.8,2c-0.3-0.5-2.5-2.5-1.2-3.1c0.4,0.2,0.8,0.3,1.5-0.2c0,1,0.7,0.7,1.5,0.7l-0.1,1.3c0.9-0.4,0.8-1,1.4-1.6
						c1,0.1,1.2,1.1,1.4,2c1.6,0.2-1.1-1.6,0.8-1.8c1.3,0.5,2.3,0,3.9-0.7c0.9,0.5-0.2,0.8,0.1,1.2l0.9-1c0.2,0,0.1,0.3,0.1,0.5
						c0.7-0.4,0.1-1.3,1.2-1.6c0.3-1.4,2.2,2.1,3.6,0.6c0.3,0.4-0.2,0.8-0.1,1.3c1.9-1,1.6-0.7,3.2-2.1l1.3,0.9
						c-0.9-1,0.3-2.1,1.5-3c-0.3-0.5-0.6-0.9-0.8-1.1l1.8-0.6c0.2,0.2,0,0.7-0.3,1.2c0.1-0.1,0.2-0.2,0.3-0.3
						c0.6,0.5,0.2,1.2-0.2,1.9c-0.2-0.3-0.4-0.5-0.6-0.8c-0.5,0.8-0.9,1.6-0.8,2.4c0.1-0.1,0.3-0.3,0.6-0.3
						c-0.1,0.2-0.2,0.4-0.2,0.5c0.1,0.1,0.2-0.1,0.5-0.5l0.3,1.4l0.1-0.6l2.2,1c1.7-1.4,3.2-3.4,5.8-3.9c-0.7,1-0.2,1.7-0.3,2.9
						c-0.6-1.3-2,0.4-3.3,0.1c0.7,0.2,0.5,0.8,0.3,1l2.4-1.1c-0.1,1,0.5,0.8,1.1,1.2c-0.4-2,1.8-1.2,2.8-1.8c0,0.7-0.2,1.3-1.4,1.1
						c1.2,1.6,1.8-2.3,3-0.9c-0.3,0-0.4-0.1-0.6,0.2c0.7-0.6,2.3,0,1.9,0.6l-0.3,0c1.9,0.3,5.8,0.3,6.2-1.3c0,0.2-0.4,2-0.5,2.4
						l3.8-5.5c-0.4,1.4,0.5,5-1.1,5.7c0.4,0.2,1,0.5,2,0.1c-0.3-0.2-0.6-2.2-0.2-2.3c1,1.7,0.7,0.9,2.1,2.4c-0.4-0.3,0.2-2.6,1-2.5
						c-0.1,0.3-0.1,2.3-0.4,2.5l2-2.1c-0.5,0.4-0.2,1.9,0.1,2.6c-0.2-0.5,1.6,0.2,2.1,0l-0.7-0.6c2,0.5,2.3-3,4.3-2.7
						c-0.3,0.4-0.8,2.8,0.2,3.2c0.6-1.1,2.5-5.4,4.4-6.1l0.3,0.7l1.4-0.6c-1,1.7-3.7,5.1-5.1,6.4c0.7,0.6,0.2,0.8,1.3,0.8
						c0.4,0.6-0.7,0.9-1,0.9l2.6,0.6c0-1.4,2.1-1.2,2.1-2.3l-3,1.1c0-1.3,2-3.7,3.9-3.3c0.4,0.6-0.6,2.4-0.6,2.8
						c0.3-0.4,1.9-0.7,2-0.4l-0.9,0.6c1,0.6,1.9-1.6,3-0.2c0.4,0.1,1.2,1.8,1.3,1.1c-0.6-1.6-0.3-6.3,0.3-7.4
						c0.1,0.1,2.2,1.7,2.6,2.5c0.6,1.3-1.3,2.8-0.8,3.8c0.1-0.4,0.5-0.8,0.7-0.9c0.4,0.4-0.3,1.1,0.7,1c0.3-1.3,2,0.3,0.6-1.1
						c1-0.3,1,0.4,2.2,0.4c-0.3-0.9,1.3-2.9,2.3-3.2c-0.1,0.3,0.1,0.8,0.2,1c2,0.3,3,1,4.9,1.2c0.1,0.3,1,0.8,0.6,1.4
						c0.3-0.2,0.6-0.6,1.2-0.6c1,1.3-1.3,0.1-0.6,1.5c0.2-0.8,1.6-0.9,2.5-1.3c-0.1-1.2-1.9-0.4-2.7,0c0.2-1.7,1.8-3.3,3.8-3.9
						c1.6-0.3,0.6,1.2,0.9,0.9c2.9,0.6,2.8-2.7,5.1-1.2c0.8,1.2-0.2,2.1,0,2.9c-1.3,0.3-1.9-0.9-2.7-0.9l1,0.6
						c-0.4,0.3-1.3,0.5-1.7,0.1c0.7,1,4.9,0.7,7.1,1.8c0.4-0.3,1.2-0.6,0.9-1.1l-0.7,0.1c-0.6-0.9,1.5-1,0.6-1.5
						c1-0.5,2.2-1.3,3.5-0.7l0.1,1.2c0-0.4-0.8-0.8-1.2-0.5c0.6-0.5,1.9,1.9,2.7,0.4l-0.8-0.9c1-0.5,2.4-1.7,3.5-1.1
						c-0.4-1.3-0.3,0.1-1-1.4c0.5,1.8-3-0.4-2.1,1.6c-0.7-1.7-1.4-0.9-2.4-2.4c0,0.4,0.3,0.8-0.7,0.5c-0.1,0.1-0.2,0.2-0.3,0.3
						c0,0,0,0-0.1,0l0.1,0.1c0,0.1-0.1,0.1,0,0c0.2,0.2,0.4,0.4,0.4,0.7c-0.6,0.9-2.2,0.7-2.8,1.1c-0.6-0.3,0.3-0.4,0-0.9l-0.9,0.6
						c0-0.9-1.4-1.6,0-2l-1.3-0.2c-0.7-0.6-1.7-0.9-2.4-0.6c-0.6-0.3-1.6,0.8-1,0.2l-2,0.4l0-0.2c-1.9-0.3-4.2,1.1-6.2-0.8
						c-0.7,0.2-1.4,0.4-2.5,0l-0.1-0.8c-0.9,0.2-2.5-1-2.9-0.3c-0.7-2.2-4.1-0.8-5.5-1.3l-0.1,1c-1-0.1-2,0.1-3.3,0.3l0,0.9
						c-1.2,0.6-2.8-0.9-4.5-0.9c0.1-0.3,0.6-0.2,0.9,0c-1.9-2.2-4.5,1.1-6.2-0.5c-0.5,0.3-0.8,0.2-1.1-0.1c0,0,0.1,0,0.1,0
						c0,0-0.1,0-0.2,0c-0.2-0.2-0.4-0.4-0.6-0.5c0.2,0.2,0.4,0.4,0.5,0.5c-0.4,0-0.9,0.1-1.5,0.2l-0.2-1c0,0-0.1,0-0.1,0
						c-0.5-0.4-0.5,0.4-0.2,1.2c-0.3,0.1-0.5,0.3-0.8,0.5c-0.3-1.6-1.4,0.4-1.9-1.3c-0.4,0.8-2.7,0.4-3.1,2.1c0-0.2-0.2-0.3,0.1-0.3
						c-0.6-0.2-1.2-0.5-1.7,0l-0.2-1.2l-1.4,1.5c-0.7-0.8-1-1.3-0.2-2.1c-2,1.3-1.6,0.4-3.3,1.8l0.1-0.8c-0.6,0-1.6,1-1.9,0.3
						c-1.2-1.6-6.4-0.6-9.6-2.1c0.5,2.4-1.5-1.1-1.7,0.7c-0.2-0.6-0.6-0.9-0.1-1.3c-1.7,0.4-2.5-1-3.8,0.5c-0.2-0.6,0.4-0.8,0.2-1.1
						c-0.1,0.1-0.6,0.5-0.7,0.1c-0.2-0.3,0.3-0.5,0.5-0.7c-1.7,0-2,1.7-2.2,3.3c-0.8-0.8-1.3-0.7-2,0.3c-0.3-0.5-0.8-1.1,0.3-1.2
						c-0.6-0.1-3.7-0.9-3.8,0.4c-0.2-0.3-0.8-0.1-1,0c-1.4-0.1-1.5-0.2-2.8-0.2l0.4,0.2c-0.6,1.5-1.1,0.3-2.2,0.5l0-0.2
						c-2.4-1.2-1.1,0.5-3.5-0.8l0.1,1c-0.3,2.1-2.1-1.3-3.6-0.5l0.5,0.6c-0.8,0.7-2.1-2.8-2.9-3.1c-0.2-0.2,0.3-0.3,0.5-0.4
						c-2-1.3-0.3,1.3-1.8,1.5c-0.3-0.7,0.4-1.7-0.6-1.9c-0.5-0.6-3,2.2-4.4,0.9c0.3,0.5,0.6,1-0.1,1.4c-1.1,0.2-2.9-2-3.9-0.3
						c-0.1-0.1-0.2-0.3-0.2-0.4c-0.8,0.4-2.7,0.7-3.2,1.6c-0.8-3.3-5.1,1.6-5.1-1.4l-2.5,0.2l0.1-0.3c-1.6-0.2-2.2,0.6-2.7,1.3
						c-0.4-0.2-0.1-0.5-0.1-0.7c-2.4-0.6-2.6-0.4-4.6,1.1l-0.2-1c-0.5,0.6-3.5-1.4-5.8-0.2c0-0.1,0.1-0.3,0.2-0.5
						c-2.6,1.3-6.4-2.5-7.2,1.2l-1.7,1c2.2,0.1-0.2,1.6,0.7,2.1c-0.9,0.3-2.3-0.9-1.3-1.2l0.2,0.2c0.3-1.9-2.8-0.5-2.8-1.8
						C71,4.9,66.7,4.1,62.6,4.4l0.6,1.4l-1.4,0c-0.4-0.3-0.6-1.1,0.4-1.1c-0.6-0.8-1.7,0.8-1.7,1.2c-2-0.4,0.6-1.8,0-1.7l-0.8,0.2
						l0.2,0.2c-0.6,0.7-0.6,1.3-1.9,1.3c-0.8-0.2-0.5-0.9-0.8-0.9c0-0.1-0.1-0.1-0.5,0l-1.8,0L55.8,6C55,6.7,54.1,6.1,55,7.3
						c-1.4-1.9-6.8-0.1-7.6-0.6c-1,0.9-2.1,1-3.5,1.1c0.4,0.2,0.7,1.5-0.5,1.4c0.1-2.7-2.3-0.9-3.4-2.7c1,1.2-3.3,0.7-1.8,2.3
						c-1-0.1-0.2-1-1-1.5c-2.2,1.3-5.2-0.1-8.1,0.6c0,0.4,0.5,0.8,0,1.4l-1.7-1.6c-0.5,0.2-0.3,2.1-1.5,1c0.2,0.3,0.5,0.7,0.1,0.9
						c-5.9-1-11.3,2.8-17.5,0.4c0.9,0.6,0.4,0.7-0.2,0.8c0.4,0.1,0.1,0.9,0.2,1.3l-2.6-1c-0.3,1.4-2.5,0.4-2.6,1.7l0.7-0.3
						c-0.8,1.6,1.8,3.1,1.9,5c0.9-1.8,3.3,2.1,4.8-0.5c0.5,0.3-0.3,0.7,0,1.1c0.4-0.9,0.9-1.1,2-0.9l-0.1,0.2
						c2.9-0.6,4.3,0.1,7.7,0.2l-0.4-0.9c0.7,0,0.9,0.3,1.3,0.5c0.6-1.5-2,0.2-1.5-1.5c1.2,1.8,5-0.6,5.9,1.5c1.1-0.1-0.5-1,0.6-1.2
						l0.4,0.6l0.2-0.8c0.7,0,1.2,0.7,1.3,1.2c-0.2,0-0.5,0.2-0.7,0.3c1,0.6,2.6-0.6,2.9-0.4l-1.1-0.2c2.9-0.9,6.6-0.5,9.4-2.1
						l-0.3-0.4c2.1-1.1,1.8,0.3,4.2-0.4l-0.1,0.1c0.4-0.5,1.1-0.8,1.7-0.8c-0.6,0.6,1.3,0.9,0.5,1.6c2.3-1.1,1.1-0.8,2.5-2.6
						l0.4,0.7c0.5-0.7,0.5-1.1,1.7-1.4c-0.9,0.7,0.9,1-0.1,2c2.7,1.4,3.6-2,5,0.2c1-2.2-2.3-0.9-1.7-1.4c-0.6-0.6,0.8-1.6,1.6-1.5
						c0.8,0,1.6,2.5,3.7,2.3c-0.2,0-0.2,0.2-0.4,0.2c0.8,0.5,1.4-0.8,2.4-0.1c0.4-1.3,1.2,0,1.2-1.6L59.5,12c1-0.5,1.9-2.4,3.7-1.7
						c-0.1,0.3-0.6,0.8-0.9,1.1c0.5,0.4,1-0.4,1.5,0c0,1.6-2.2,0.5-3.3,1.8c0.6,0.6,2-1.3,1.6,0.4c0.6-2.2,2,0.1,3.3-1.7l0,1
						c0.2-0.2,0.6-0.7,1-0.7l-0.6,1.3c1-1.1,2.2,0.7,3.2,0.1c-2.2,0.2-0.6-1.1-1.6-1.7c2.7-1.4,1.8,2.4,4.8,1.7
						c-0.4,0.2-1.6-0.5-1-0.9c0.6,0.2,1.4,0.5,1.8,0.9c2-0.3-0.4-1,0.5-1.6c0.8,1.1,1-0.5,1.9-1l0.1,1c2.4,0.5,0.5-2,2.6-1.4
						L77.3,12l1.1-0.4l-0.2,1.1c1.1-0.9,1.5-0.7,2.7-0.5c-0.3-0.7,0.1-1.8,1.1-1.8c0.7,0.5-0.3,0.9,1.1,0.7
						c-0.3,0.6-0.6,1.4-1.3,0.5c0,0.3-0.3,0.6-0.3,0.9c0.8,0.6,1.9,0.1,2.4,0c-0.2,0-0.5-0.1-0.6-0.2l2.1-1.4
						c0.4,0.3,0.1,0.6-0.2,0.9c0.4-0.1,0.7-0.6,1.3-0.7c-0.1,0.8-0.1,1.6-0.9,2l2-1c0.2,0.3,1.1,0.9,0.8,1.2
						c1.1,0.4,2.7-1.7,4.2-1.1c0.1-0.2,0.2-0.3,0.5-0.4c1.4,0.1,2.7,1.1,4.3,0l1,1.4c1.3-0.4-1.3-1.7,0.8-2.3
						c1.5-0.5,0.6,1.2,1.1,1.6c0.7-0.7,2-2.2,3.5-1.1C103.5,11.8,103.1,11.6,102.6,11.7z M118.7,11c-0.3,0.2-0.9,0.8-1.2,0.2
						C117.9,10.1,118.2,10.6,118.7,11z M143.2,9.3c-0.2,0.3-0.6,0.1-1-0.2C142.5,9,142.9,9,143.2,9.3z M212,7.9
						C212,7.9,212,7.9,212,7.9C211.3,7.5,211.6,7.7,212,7.9z M213.5,8.5c0.2-0.1,0.2-0.3,0.1-0.4c-0.1,0.2-0.5,0.2-0.8,0.1
						C212.8,8.5,213,8.6,213.5,8.5z M57.1,5.3l0.3,0.2C56.8,5.8,57,5.6,57.1,5.3z"/>
					<path d="M140.4,10.5c-0.1-0.2-0.1-0.3-0.1-0.5C140.1,10.2,140.1,10.3,140.4,10.5z"/>
					<path d="M92.7,12.4C92.7,12.4,92.7,12.4,92.7,12.4c-0.1,0-0.1,0.1-0.1,0.2L92.7,12.4z"/>
					<path d="M190.3,14.4c-0.3-0.2-0.4-0.4-0.5-0.5C189.7,14.1,189.8,14.3,190.3,14.4z"/>
					<path d="M221.3,7.7l-1,0.1c0.5,0,0.6,0.2,0.8,0.4C221.1,8,221,7.7,221.3,7.7z"/>
					<path d="M228.7,14.5c0.1-0.1,0.3,0,0.4-0.1l0-0.4C228.5,13.9,228.1,14.3,228.7,14.5z"/>
					<path d="M221.8,11c0,0.8,0.6,0.6,1.3,0.5c0,0-0.1,0-0.1,0C223.3,10.4,222.5,10.7,221.8,11z"/>
					<path d="M223.2,11.5c0.2,0,0.4,0,0.6,0C223.9,11.1,223.6,11.4,223.2,11.5z"/>
					<path d="M215.3,8.1c0.3,0.2,0.3-1,0.4-0.7C216.2,6.5,213.6,8.5,215.3,8.1z"/>
					<polygon points="222,13.7 221.9,12.7 221.5,13.4 					"/>
					<path d="M217,12.4l1,0.4c0-0.2,0.1-0.3,0.3-0.3C217.7,12.4,217,12.1,217,12.4z"/>
					<path d="M218.3,12.5c0.3,0.1,0.6,0.1,0.9-0.1C219,12.4,218.6,12.4,218.3,12.5z"/>
					<polygon points="220.6,13.8 220.3,13.6 219.6,13.4 					"/>
					<path d="M205.9,11l-1.2,0.2c-0.1,0.3,0.1,0.6,0.6,0.5C205.6,11.5,206,11.4,205.9,11z"/>
					<path d="M209,14.1c-0.3-0.2-0.3-0.5-0.4-0.8l-0.2,1.2L209,14.1z"/>
					<path d="M205.7,14.1c-0.1,0.3-1.7,0.8-0.3,0.9C205.6,14.6,206.7,14.5,205.7,14.1z"/>
					<polygon points="188.8,10.9 189.1,10.9 189.3,8.9 					"/>
					<path d="M173.4,14.5c1.3,0.6,0.4-1.2,1.6-0.5c0.4-0.5-0.9-0.6-0.6-1C173.6,13.5,173.2,13.1,173.4,14.5z"/>
					<path d="M174.4,13c0.1-0.1,0.3-0.2,0.4-0.3C174.6,12.8,174.5,12.9,174.4,13z"/>
					<polygon points="4.3,10.3 3.4,10 4.1,10.6 					"/>
					<path d="M2.9,12l-0.4-1.3c0,0-0.1,0.3-0.2,0.6C2.3,11.7,2.1,12,2.2,12C2.3,11.9,2.7,11.8,2.9,12z"/>
					<path d="M121.1,13.6l0.1-0.3c-0.1-0.3-0.3-0.4-0.7-0.4L121.1,13.6z"/>
					<polygon points="109.4,12.6 109.6,12.7 109.3,11.5 					"/>
					<path d="M99.7,14.3c0.4,0,0.9-0.2,1.3-0.2C100.1,14.3,99.6,12.8,99.7,14.3z"/>
				</g>
			</g>
		</g>
	</g>
</g>
</svg>
