<?xml version="1.0" encoding="utf-8"?>
<!-- Generator: Adobe Illustrator 18.1.1, SVG Export Plug-In . SVG Version: 6.00 Build 0)  -->
<svg version="1.1" id="Layer_1" xmlns="http://www.w3.org/2000/svg" xmlns:xlink="http://www.w3.org/1999/xlink" x="0px" y="0px"
	 viewBox="0 0 190 19" enable-background="new 0 0 190 19" xml:space="preserve">
<g>
	<g>
		<g>
			<g>
				<g>
					<path d="M188.6,12.8c0.3,0.1,0.3-0.7,0.4-0.9C188.4,12,188.5,13,188.6,12.8z"/>
					<polygon points="183.8,13.9 183.9,13.6 183.1,14.3 					"/>
					<path d="M179.5,13.2c0.2,1.5,1.6,0,2.2,0.6l0.1,0.3l0.5-1.1C181.4,13.1,180.1,13.7,179.5,13.2z"/>
					<path d="M177.8,9.8c0,0.6-0.6,0.4,0.5,0.3c0-0.1,0-0.1-0.1-0.2C178.1,9.9,178,9.9,177.8,9.8z"/>
					<path d="M178.2,9.9C178.7,9.9,178,9.4,178.2,9.9L178.2,9.9z"/>
					<path d="M176.1,9.9l0.7-0.4c-0.1-0.3-0.6-0.5-0.3-0.7C175.8,8.9,175.9,9.3,176.1,9.9z"/>
					<path d="M175.4,10.8l0.3-0.2C175.7,10.5,175.6,10.5,175.4,10.8z"/>
					<path d="M176.4,10.3l-0.7,0.3c0,0.2,0,0.7,0.3-0.1C175.9,11,176.1,10.6,176.4,10.3z"/>
					<path d="M176.8,10.6c0.3,0.4,0.7,0.6,0,1C177.9,11.6,177.9,10.6,176.8,10.6z"/>
					<path d="M179.1,14.6l0.4,0.5l0.5-0.4C179.7,14.9,179.1,14.2,179.1,14.6z"/>
					<path d="M172.6,8.6c-0.1,0.3,0.1,0.8,0,1.2l0.5-0.3C172.9,9.3,172.5,9,172.6,8.6z"/>
					<path d="M172.6,9.8l-0.7,0.4C172.5,10.3,172.6,10.1,172.6,9.8z"/>
					<polygon points="175,12.4 176.3,11.5 174.8,12.3 					"/>
					<polygon points="170.1,8.1 170.6,7.5 169.8,8.4 					"/>
					<path d="M168.5,8c0.4-0.5-0.2-1,0.1-1.3c-0.5,0-0.9,0.5-1.3,0.9C167.6,7.3,168,7.4,168.5,8z"/>
					<path d="M166.6,8.1c0.2-0.1,0.4-0.3,0.7-0.6C167,7.6,166.8,7.8,166.6,8.1z"/>
					<path d="M170.8,9.9c0-0.2,0-0.7-0.4-0.9l0.1,0.9C170.6,9.8,170.7,9.8,170.8,9.9z"/>
					<path d="M170.6,9.8L170.6,9.8c-0.3-0.1-0.5-0.1-0.5-0.2C170.1,9.7,170.3,9.7,170.6,9.8z"/>
					<path d="M170.9,9.9C170.9,9.9,170.8,9.9,170.9,9.9C170.8,9.9,170.8,10,170.9,9.9z"/>
					<path d="M173.5,11.3c-0.5,0.4-1.3,0.8-0.7,1.6C173.1,12.4,172.8,11.9,173.5,11.3z"/>
					<path d="M171,11l0.7,0.3c0-0.2,0-0.6,0.2-0.8L171,11z"/>
					<polygon points="170.7,11.2 171,11 170.8,10.9 					"/>
					<path d="M167.6,9c-0.4,0.3-0.7,0.3-1.1,0.3c0.4,0.2,0.8,0.4,1.2,0.4C167.8,9.5,168,9.1,167.6,9z"/>
					<path d="M169,9.5C169,9.5,169,9.5,169,9.5C169,9.6,169,9.6,169,9.5z"/>
					<path d="M162.9,8.8c0,0.1,0,0.1,0,0.2L162.9,8.8L162.9,8.8z"/>
					<path d="M167.7,9.9c0.3,0.2,0.5,0,0.7-0.2c-0.2,0.1-0.5,0.1-0.7,0C167.7,9.9,167.6,10,167.7,9.9z"/>
					<path d="M165.5,8.3c0.1,0.2,0.3,0.4,0.4,0.5C165.8,8.5,165.6,8.1,165.5,8.3z"/>
					<path d="M168.9,9.3C168.9,9.3,168.9,9.3,168.9,9.3C168.9,9,168.9,9.1,168.9,9.3z"/>
					<path d="M168.9,9.3c-0.2,0.1-0.3,0.3-0.5,0.5c0.2,0,0.4-0.1,0.5-0.2C168.9,9.5,168.9,9.4,168.9,9.3z"/>
					<path d="M161,14c0.2-0.8,1.1-1.4,1.6-0.4c0.8-0.5,0.7-3.1,0.4-4.7c-0.1,0.3-0.1,0.7-0.9,1c0.2,0.5,1.4,1.2,0.7,1.9
						c-1,0.3-0.7-0.4-1.1-0.9c0.2,1-1.4,1.2-1.4,2.7l0.9-0.4C161.1,13.5,160.8,13.8,161,14z"/>
					<path d="M164.2,9.2l0.3-0.1c-0.3-0.2-0.5-0.5-0.8-1.2c-0.5,0.3-0.7,0.6-0.7,0.8l1.4,0.3L164.2,9.2z"/>
					<path d="M165.8,9.3c-0.4,0.8-1.1,1.1-0.8,2.1c0.8,0.1,0.7-0.6,1.2-0.9C164.9,10.5,166.7,10.1,165.8,9.3c0.3,0,0.5,0,0.7,0
						c-0.2-0.1-0.4-0.3-0.6-0.5c0,0,0,0,0,0.1l0,0l0,0c0,0.1,0,0.2,0,0.1c0,0,0,0,0,0C165.9,9.1,165.8,9.2,165.8,9.3
						c-0.4-0.2,0-0.2,0.1-0.3c0,0,0-0.1,0-0.1l0,0l-1.4,0.3C164.8,9.3,165.2,9.3,165.8,9.3z"/>
					<path d="M171.8,14.7c0-0.1,0-0.1,0-0.2C171.7,14.6,171.6,14.6,171.8,14.7z"/>
					<path d="M171.3,14.1c0.1-0.1,0.3-0.4,0.6-0.3c0.2,0.3-0.1,0.4-0.1,0.7c0.2-0.2,0.8-0.5,0.2-1l-0.1,0.1c-0.5-0.4-1-1.6-0.9-1.7
						C171,12.7,171.1,13.3,171.3,14.1z"/>
					<path d="M168.5,11.9l-1.2,0.2l0.4,0.8l0-0.4C168.4,12.8,168.4,12.2,168.5,11.9z"/>
					<polygon points="162.9,8.3 163.1,7.4 162.3,8.6 					"/>
					<polygon points="161.4,8.2 161.6,7.4 161.1,7.8 					"/>
					<path d="M79,10.7l-0.3,0.2C78.9,10.8,79,10.8,79,10.7z"/>
					<path d="M81.4,10.7l0.1-0.4C81.3,10.6,81.3,10.7,81.4,10.7z"/>
					<path d="M125.8,3.7c-0.4-0.8-0.8-2-0.9-1.1l0.1,0.9C125.3,3.3,125.6,3.4,125.8,3.7z"/>
					<path d="M100.9,6.8c0,0.1,0.1,0.2,0.1,0.3c0.1-0.3,0.3-0.6,0.4-0.8C101.2,6.5,101.1,6.7,100.9,6.8z"/>
					<path d="M100.4,10.4l-0.6-0.6C99.9,10,100.1,10.2,100.4,10.4z"/>
					<path d="M66.2,11.7l-0.4,0.9C66.5,12.6,66.2,12.2,66.2,11.7z"/>
					<path d="M146.5,6.4c-0.4-0.4-0.7-0.6-1-0.7C146,6.3,146.3,7.1,146.5,6.4z"/>
					<path d="M80,1.5c-0.2,0.2-0.3,0.3-0.3,0.5C80,1.9,80.1,1.7,80,1.5z"/>
					<path d="M144.4,5.6c0.1,0.1,0.1,0.1,0.2,0.2c0.3-0.1,0.6-0.2,1-0.1C145.3,5.3,144.9,5,144.4,5.6z"/>
					<path d="M19.9,14.9c0,0-0.1,0-0.1-0.1C19.8,15,19.8,15,19.9,14.9z"/>
					<path d="M5,8.3c0.1-0.1,0.3-0.1,0.5-0.2C5.5,8.1,5.3,8.2,5,8.3z"/>
					<path d="M155.6,6.9C156,6.9,155.7,6.8,155.6,6.9L155.6,6.9z"/>
					<path d="M156.6,10.6c-0.1,0.1-0.1,0.2-0.2,0.4C156.5,10.8,156.6,10.6,156.6,10.6z"/>
					<path d="M140.6,10.5L140.6,10.5C140.7,10.7,140.7,10.6,140.6,10.5z"/>
					<path d="M156,7.4c-0.1-0.1-0.2-0.2-0.4-0.3C155.7,7.2,155.8,7.3,156,7.4z"/>
					<path d="M156,7c0.1,0.1,0.2,0.1,0.3,0.1C156.4,7,156.3,6.9,156,7z"/>
					<path d="M155.2,6.9c0.2,0,0.3,0.1,0.5,0.2c-0.1-0.1-0.1-0.1,0-0.1C155.5,6.9,155.4,6.9,155.2,6.9z"/>
					<path d="M44.5,9.8C44.5,9.8,44.4,9.8,44.5,9.8C44.1,10.1,44.3,10.1,44.5,9.8z"/>
					<path d="M116.9,11.9C116.9,11.9,116.9,11.8,116.9,11.9C116.9,11.8,116.9,11.8,116.9,11.9L116.9,11.9z"/>
					<path d="M115.8,12.4c0.6-1,0.8-0.9,1.1-0.6l-0.1-2.5L115.8,12.4z"/>
					<path d="M73.4,10.9l0.8,0.8c-0.9,1.3-1.6,0.8-0.9,1.9c0.1-2.7,3-0.3,3.1-3l0.5,0.6c-0.1,0-0.2,0.1-0.3,0.1c1,1.3,0.7-2,2-1.6
						c0.4,0.2,0.7,0.6,0.4,0.9l1-0.7c0.3,0.1,0.2,0.5-0.1,0.5c0,0,0.4-0.1,0.8-0.1c0.4,0,0.8-0.1,0.8-0.1l0,0.1
						c0.2-0.4,0.7-1.1,1-1.3c0.4,0.4-0.2,0.3-0.1,0.6L83.1,9c0.3,0.7-0.4,1.4-0.9,1.3c0.7,2.7,0.7-0.7,2.4,1l-0.8,0.3
						c0.5,1.6,1.1,1,2,2c-0.2-0.5-1.7-2.5-0.8-3.1c0.3,0.2,0.6,0.3,1.1-0.2c0,1,0.5,0.7,1.1,0.7L87,12.2c0.7-0.4,0.6-1,1-1.6
						c0.7,0.1,0.8,1.1,1,2c1.1,0.2-0.7-1.6,0.6-1.8c0.9,0.5,1.6,0,2.8-0.7c0.7,0.5-0.1,0.8,0.1,1.2l0.6-1c0.1,0,0.1,0.3,0.1,0.5
						c0.5-0.4,0.1-1.3,0.9-1.6c0.3-1.4,1.5,2.1,2.6,0.6c0.2,0.4-0.2,0.8-0.1,1.3c1.4-1,1.2-0.7,2.4-2.1l0.9,0.9
						c-0.6-1,0.3-2.1,1.1-3c-0.2-0.5-0.4-0.9-0.5-1.1l1.3-0.6c0.1,0.2,0,0.6-0.2,1.2c0.1-0.1,0.2-0.2,0.2-0.3
						c0.4,0.5,0.1,1.2-0.2,1.9c-0.1-0.3-0.3-0.5-0.4-0.8c-0.3,0.8-0.7,1.6-0.7,2.4c0.1-0.1,0.2-0.3,0.4-0.3
						c-0.1,0.2-0.2,0.4-0.1,0.5c0,0.1,0.2-0.1,0.4-0.5l0.2,1.4l0.1-0.6c0,0,0.4,0.2,0.8,0.5c0.4,0.3,0.8,0.5,0.8,0.5
						c1.2-1.4,2.4-3.4,4.2-3.8c-0.5,1-0.2,1.7-0.3,2.9c-0.4-1.3-1.5,0.5-2.4,0.1c0.5,0.2,0.3,0.8,0.2,1l1.8-1.1
						c-0.1,1,0.3,0.8,0.7,1.2c-0.2-2,1.3-1.2,2.1-1.8c0,0.7-0.2,1.3-1,1.1c0.8,1.6,1.4-2.3,2.2-0.9c-0.2,0-0.3-0.1-0.4,0.2
						c0.5-0.6,1.7,0,1.3,0.6l-0.2,0c1.3,0.3,4.1,0.3,4.5-1.3c0,0.2-0.4,2-0.5,2.4l2.9-5.5c-0.3,1.4,0.2,5-1,5.7
						c0.3,0.2,0.7,0.5,1.4,0.1c-0.2-0.2-0.4-2.2,0-2.3c0.7,1.7,0.5,0.9,1.4,2.4c-0.3-0.3,0.3-2.6,0.8-2.5c-0.1,0.3-0.2,2.3-0.4,2.5
						l1.5-2.1c-0.4,0.4-0.2,1.9,0,2.6c-0.1-0.5,1.1,0.1,1.5,0l-0.5-0.6c1.4,0.5,1.8-3,3.2-2.8c-0.2,0.4-0.7,2.8,0,3.2
						c0.5-1.1,2.1-5.3,3.5-6.1l0.2,0.7l1.1-0.6c-0.8,1.7-2.9,5.1-4,6.4c0.5,0.6,0.1,0.8,0.9,0.8c0.2,0.6-0.5,0.9-0.8,0.9l1.9,0.6
						c0.1-1.3,1.6-1.2,1.7-2.3l-2.2,1.1c0.1-1.3,1.6-3.7,2.9-3.3c0.3,0.6-0.5,2.3-0.5,2.8c0.2-0.4,1.4-0.7,1.5-0.4l-0.7,0.6
						c0.7,0.6,1.4-1.6,2.2-0.2c0.3,0.1,0.7,1.8,0.9,1c-0.3-1.6,0.1-6.3,0.6-7.4c0.1,0.1,1.5,1.6,1.7,2.4c0.4,1.3-1.1,2.8-0.8,3.8
						c0.1-0.4,0.4-0.8,0.5-0.9c0.3,0.3-0.3,1.1,0.5,1c0.3-1.3,1.4,0.3,0.5-1.1c0.7-0.3,0.7,0.4,1.5,0.4c-0.2-0.9,1.1-2.9,1.9-3.2
						c-0.1,0.3,0,0.8,0.1,1c1.4,0.3,2.1,1,3.4,1.2c0.1,0.3,0.7,0.8,0.3,1.4c0.2-0.2,0.5-0.6,0.9-0.6c0.6,1.3-0.9,0.1-0.5,1.5
						c0.2-0.8,1.2-0.9,1.9-1.4c0-1.2-1.3-0.4-2,0c0.2-1.7,1.5-3.3,3-3.9c1.2-0.3,0.3,1.1,0.6,0.9c2,0.6,2.2-2.7,3.8-1.2
						c0.5,1.2-0.3,2.1-0.2,2.9c-1,0.3-1.3-0.9-1.9-0.9l0.7,0.6c-0.3,0.3-1,0.5-1.3,0.1c0.4,1,3.5,0.6,5,1.8c0.3-0.3,0.9-0.6,0.7-1.1
						l-0.5,0.1c-0.3-0.9,1.1-1,0.5-1.5c0.8-0.5,1.7-1.3,2.6-0.7l0,1.2c0-0.4-0.5-0.8-0.8-0.5c0.5-0.5,1.2,1.9,1.9,0.3L158,10
						c0.8-0.5,1.8-1.7,2.6-1.1c-0.2-1.3-0.2,0.1-0.6-1.4c0.3,1.8-2.2-0.4-1.6,1.6c-0.4-1.7-1-0.9-1.6-2.4c0,0.4,0.2,0.8-0.5,0.5
						c0,0.1-0.1,0.2-0.2,0.3c0,0,0,0,0,0l0,0.1c0,0.1,0,0.1,0,0c0.1,0.2,0.3,0.4,0.3,0.7c-0.5,0.9-1.6,0.7-2.1,1.1
						c-0.4-0.3,0.2-0.4,0.1-0.9l-0.7,0.6c0.1-0.9-0.9-1.6,0.2-2l-0.9-0.2c-0.5-0.6-1.2-0.9-1.7-0.6c-0.4-0.3-1.2,0.8-0.7,0.2
						L149,6.8l0-0.2c-1.4-0.3-3.1,1.1-4.5-0.7c-0.5,0.2-1,0.4-1.8,0L142.7,5c-0.6,0.2-1.7-1-2.1-0.2c-0.4-2.2-2.9-0.8-3.9-1.3
						l-0.2,1c-0.7-0.1-1.5,0.1-2.4,0.4l0,0.9c-0.9,0.6-1.9-0.9-3.2-0.9c0.1-0.3,0.4-0.2,0.6,0c-1.3-2.2-3.3,1.1-4.5-0.5
						c-0.4,0.3-0.6,0.2-0.8-0.1c0,0,0.1,0,0.1,0c0,0-0.1,0-0.1,0c-0.1-0.2-0.3-0.4-0.4-0.5c0.1,0.2,0.2,0.4,0.3,0.5
						c-0.3,0-0.7,0.1-1.1,0.3l-0.1-1c0,0-0.1,0-0.1,0c-0.3-0.4-0.4,0.4-0.2,1.2c-0.2,0.1-0.4,0.3-0.6,0.5c-0.2-1.6-1.1,0.4-1.3-1.3
						c-0.3,0.8-2,0.4-2.4,2.1c0-0.2-0.1-0.3,0.1-0.3c-0.4-0.2-0.8-0.5-1.3,0l-0.1-1.2L118.1,6c-0.5-0.8-0.7-1.3-0.1-2.1
						c-1.5,1.3-1.2,0.4-2.4,1.8l0.1-0.8c-0.4,0-1.2,1-1.4,0.3c-0.8-1.6-4.6-0.5-6.9-2.1c0.3,2.4-1-1.1-1.3,0.7
						c-0.1-0.6-0.4-0.9,0-1.3c-1.3,0.5-1.8-1-2.7,0.5c-0.1-0.6,0.3-0.8,0.2-1.1c-0.1,0.1-0.4,0.5-0.5,0.1c-0.1-0.3,0.2-0.4,0.4-0.7
						c-1.3,0-1.5,1.7-1.7,3.3c-0.6-0.8-0.9-0.7-1.4,0.3c-0.2-0.5-0.5-1.1,0.3-1.2c-0.4-0.1-2.6-0.9-2.7,0.4c-0.1-0.3-0.6-0.1-0.7,0
						c-1-0.1-1.1-0.2-2-0.2l0.3,0.2c-0.4,1.5-0.8,0.3-1.6,0.5l0-0.2c-1.7-1.2-0.8,0.5-2.5-0.9l0.1,1c-0.2,2.1-1.5-1.3-2.6-0.5
						l0.3,0.6c-0.6,0.7-1.5-2.8-2-3.1c-0.1-0.2,0.2-0.3,0.4-0.4c-1.4-1.3-0.2,1.3-1.3,1.5c-0.2-0.7,0.3-1.7-0.4-1.9
						c-0.4-0.6-2.2,2.1-3.2,0.8c0.2,0.5,0.4,1.1-0.1,1.4c-0.8,0.2-2.1-2-2.8-0.4c-0.1-0.1-0.1-0.3-0.1-0.4c-0.6,0.4-1.9,0.7-2.3,1.6
						c-0.5-3.3-3.7,1.6-3.7-1.4L72,2.3L72,2c-1.2-0.2-1.6,0.5-2,1.3c-0.3-0.2-0.1-0.5-0.1-0.7c-1.7-0.6-1.9-0.4-3.3,1.1l-0.2-1
						c-0.4,0.6-2.5-1.5-4.2-0.3c0-0.1,0-0.3,0.2-0.4c-1.8,1.2-4.6-2.5-5.2,1.1l-1.2,1c1.6,0.2-0.2,1.6,0.5,2.1
						c-0.6,0.2-1.7-1-0.9-1.2l0.1,0.2c0.2-1.9-2-0.6-2.1-1.8c-3.2,0.2-6.3-0.5-9.3-0.4L45,4.3l-1,0c-0.3-0.3-0.5-1.1,0.3-1.1
						c-0.5-0.8-1.2,0.8-1.2,1.1c-1.5-0.5,0.4-1.7,0-1.7l-0.6,0.2l0.2,0.2c-0.4,0.6-0.4,1.3-1.3,1.3c-0.6-0.2-0.4-0.9-0.6-0.9
						c0-0.1-0.1-0.1-0.3,0l-1.3,0l0.6,1.1c-0.5,0.6-1.2,0.1-0.5,1.3c-1.1-1.9-4.9-0.3-5.5-0.8c-0.7,0.9-1.5,1-2.5,1
						c0.3,0.2,0.6,1.5-0.3,1.4c0-2.7-1.7-1-2.6-2.8c0.8,1.2-2.4,0.6-1.2,2.3c-0.7-0.1-0.2-1-0.8-1.6c-1.5,1.2-3.8-0.2-5.8,0.4
						c0,0.4,0.4,0.8,0.1,1.4l-1.3-1.6c-0.4,0.2-0.1,2.1-1,1c0.1,0.3,0.4,0.7,0.1,0.8C14,6.2,10.3,9.9,5.7,7.4C6.3,8,6,8.1,5.6,8.2
						C5.9,8.3,5.7,9,5.8,9.5l-1.9-1c-0.1,1.4-1.8,0.4-1.8,1.7l0.5-0.3c-0.5,1.6,1.5,3.1,1.7,5C4.9,13,6.9,17,7.8,14.4
						c0.4,0.3-0.2,0.6,0.1,1.1c0.2-0.9,0.6-1.1,1.4-0.9l-0.1,0.2c2.1-0.5,3.1,0.1,5.5,0.3l-0.3-0.9c0.5,0,0.7,0.3,0.9,0.5
						c0.4-1.5-1.4,0.1-1.1-1.5c1,1.8,3.6-0.5,4.3,1.6c0.8-0.1-0.4-1.1,0.4-1.1l0.3,0.6l0.1-0.8c0.5,0.1,0.9,0.8,1,1.2
						c-0.1,0-0.3,0.2-0.5,0.2c0.8,0.6,1.8-0.5,2.1-0.3l-0.8-0.3c2.1-0.8,4.7-0.4,6.6-1.9l-0.2-0.4c1.5-1,1.3,0.3,3-0.2L30.6,12
						c0.3-0.5,0.7-0.8,1.2-0.8c-0.4,0.6,0.9,0.9,0.4,1.6c1.6-1.1,0.8-0.8,1.7-2.6l0.3,0.7c0.3-0.7,0.3-1.1,1.2-1.3
						c-0.6,0.7,0.7,1.1,0,2c2,1.4,2.5-1.9,3.6,0.4c0.6-2.1-1.7-1-1.3-1.5c-0.5-0.6,0.5-1.6,1.1-1.4c0.6,0,1.2,2.5,2.7,2.3
						c-0.1,0-0.1,0.2-0.3,0.2c0.6,0.5,1-0.8,1.7,0c0.3-1.3,0.9,0,0.8-1.6l-1.3,0.5c0.7-0.5,1.3-2.4,2.6-1.6c-0.1,0.3-0.4,0.8-0.6,1
						c0.4,0.4,0.7-0.4,1.1,0.1c0,1.6-1.6,0.5-2.3,1.7c0.4,0.6,1.4-1.3,1.2,0.5c0.4-2.2,1.5,0.2,2.3-1.6l0,1c0.1-0.2,0.4-0.6,0.7-0.6
						l-0.4,1.3c0.7-1.1,1.6,0.8,2.3,0.2c-1.6,0.1-0.4-1.1-1.2-1.8c1.9-1.4,1.3,2.4,3.5,1.8c-0.3,0.2-1.2-0.5-0.7-1
						c0.4,0.2,1,0.5,1.3,1c1.5-0.3-0.3-1,0.3-1.6c0.6,1.1,0.7-0.5,1.3-0.9l0.1,1c1.7,0.5,0.3-2,1.9-1.4l-0.6,1.4l0.8-0.4l-0.1,1.1
						c0.8-0.9,1.1-0.7,1.9-0.4c-0.2-0.7,0-1.8,0.8-1.8c0.5,0.5-0.2,0.9,0.8,0.7c-0.2,0.6-0.4,1.4-0.9,0.5c0,0.3-0.2,0.6-0.2,0.9
						c0.6,0.6,1.4,0.1,1.7,0.1c-0.1,0-0.3-0.1-0.4-0.2l1.5-1.4c0.3,0.4,0.1,0.7-0.1,0.9c0.3-0.1,0.5-0.6,1-0.7c-0.1,0.8,0,1.6-0.7,2
						l1.4-0.9c0.1,0.3,0.8,0.9,0.6,1.2c0.8,0.4,1.9-1.6,3-1c0.1-0.2,0.2-0.3,0.4-0.4c1,0.2,1.9,1.1,3.1,0l0.7,1.4
						c0.9-0.3-0.9-1.8,0.6-2.3c1.1-0.4,0.4,1.2,0.8,1.6c0.5-0.7,1.5-2.2,2.5-1C74,11,73.7,10.8,73.4,10.9z M84.9,10.4
						c-0.2,0.2-0.7,0.8-0.8,0.2C84.3,9.5,84.5,10.1,84.9,10.4z M102.5,8.8c-0.2,0.3-0.4,0.1-0.7-0.2C102,8.5,102.2,8.5,102.5,8.8z
						 M152.2,7.2C152.1,7.2,152.1,7.3,152.2,7.2C151.7,6.8,151.8,7,152.2,7.2z M153.1,7.8c0.1-0.1,0.1-0.3,0.1-0.4
						c-0.1,0.2-0.3,0.2-0.6,0.1C152.7,7.8,152.8,8,153.1,7.8z M40.6,3.6l0.2,0.2C40.4,4.2,40.5,3.9,40.6,3.6z"/>
					<path d="M100.4,10c-0.1-0.2-0.1-0.3-0.1-0.5C100.3,9.6,100.3,9.8,100.4,10z"/>
					<path d="M66.3,11.6C66.3,11.5,66.3,11.6,66.3,11.6c-0.1,0-0.1,0.1-0.1,0.2L66.3,11.6z"/>
					<path d="M136.1,13.8c-0.2-0.2-0.3-0.4-0.3-0.5C135.7,13.5,135.7,13.7,136.1,13.8z"/>
					<path d="M158.9,7l-0.7,0.1c0.3,0,0.4,0.2,0.6,0.4C158.7,7.3,158.7,7,158.9,7z"/>
					<path d="M163.7,13.8c0.1-0.1,0.2,0,0.3-0.1l0-0.4C163.7,13.2,163.3,13.5,163.7,13.8z"/>
					<path d="M159,10.3c-0.1,0.8,0.4,0.6,0.9,0.5c0,0-0.1,0-0.1,0C160.1,9.7,159.6,10,159,10.3z"/>
					<path d="M160,10.8c0.1,0,0.3,0,0.4,0C160.5,10.4,160.3,10.7,160,10.8z"/>
					<path d="M154.5,7.4c0.2,0.2,0.3-1,0.4-0.7C155.3,5.8,153.2,7.8,154.5,7.4z"/>
					<polygon points="159,13 159,11.9 158.6,12.7 					"/>
					<path d="M155.4,11.7l0.7,0.4c0-0.2,0.1-0.3,0.2-0.3C155.9,11.6,155.5,11.4,155.4,11.7z"/>
					<path d="M156.4,11.7c0.2,0.1,0.5,0.1,0.6-0.1C156.9,11.7,156.6,11.7,156.4,11.7z"/>
					<polygon points="157.9,13.1 157.7,12.9 157.2,12.7 					"/>
					<path d="M147.5,10.4l-0.8,0.2c-0.1,0.3,0.1,0.6,0.4,0.5C147.3,10.8,147.6,10.7,147.5,10.4z"/>
					<path d="M149.6,13.4c-0.2-0.2-0.2-0.5-0.3-0.8l-0.2,1.2L149.6,13.4z"/>
					<path d="M147.2,13.4c-0.1,0.3-1.3,0.8-0.3,0.9C147,13.9,147.9,13.8,147.2,13.4z"/>
					<polygon points="135.2,10.3 135.4,10.3 135.6,8.2 					"/>
					<path d="M124,13.9c0.9,0.6,0.4-1.2,1.2-0.5c0.3-0.5-0.7-0.6-0.4-1C124.1,12.9,123.8,12.6,124,13.9z"/>
					<path d="M124.7,12.4c0.1-0.1,0.2-0.2,0.3-0.3C124.9,12.3,124.8,12.3,124.7,12.4z"/>
					<polygon points="2.6,7.6 1.9,7.3 2.4,7.9 					"/>
					<path d="M1.7,9.3L1.3,8c0,0-0.2,1.2-0.2,1.2C1.3,9.2,1.5,9,1.7,9.3z"/>
					<path d="M86.5,13.1l0.1-0.3c-0.1-0.3-0.2-0.4-0.5-0.4L86.5,13.1z"/>
					<polygon points="78.3,12 78.4,12 78.1,10.8 					"/>
					<path d="M71.3,13.5c0.3,0,0.6-0.2,0.9-0.2C71.6,13.5,71.2,12,71.3,13.5z"/>
				</g>
			</g>
		</g>
	</g>
</g>
</svg>
