<?xml version="1.0" encoding="utf-8"?>
<!-- Generator: Adobe Illustrator 18.1.1, SVG Export Plug-In . SVG Version: 6.00 Build 0)  -->
<svg version="1.1" id="Layer_1" xmlns="http://www.w3.org/2000/svg" xmlns:xlink="http://www.w3.org/1999/xlink" x="0px" y="0px"
	 viewBox="0 0 140 225" enable-background="new 0 0 140 225" xml:space="preserve">
<g>
	<path fill="none" stroke="#FFFFFF" stroke-width="8" stroke-linecap="round" stroke-miterlimit="10" d="M130.3,220.5H9.8
		c-2.6,0-4.7-2.1-4.7-4.7v-137c0-2.6,2.1-4.7,4.7-4.7h120.5c2.6,0,4.7,2.1,4.7,4.7v137C135,218.4,132.9,220.5,130.3,220.5z"/>
	
		<line fill="none" stroke="#FFFFFF" stroke-width="8" stroke-linecap="round" stroke-miterlimit="10" x1="44.4" y1="194.9" x2="99.9" y2="194.9"/>
	<g>
		<g>
			<g>
				<path d="M36.2,165.6L127.5,8C7.3,57.5,36.2,165.6,36.2,165.6z"/>
				<path d="M37.7,162.7c0,0,91.9-53.2,91.9-157.6L79.1,81L37.7,162.7z"/>
			</g>
		</g>
		<g>
			<path fill="none" stroke="#FFFFFF" stroke-width="7" stroke-linecap="round" stroke-miterlimit="10" d="M24.9,194.5
				c0,0,37.3-103.2,104.7-189.4"/>
			<path fill="none" stroke="#FFFFFF" stroke-width="7" stroke-linecap="round" stroke-miterlimit="10" d="M37.7,162.7
				c0,0-28.9-108.1,91.3-157.6"/>
			<path fill="none" stroke="#FFFFFF" stroke-width="7" stroke-linecap="round" stroke-miterlimit="10" d="M37.7,162.7
				c0,0,78.6-43.7,91.9-157"/>
			
				<line fill="none" stroke="#FFFFFF" stroke-width="6" stroke-linecap="round" stroke-miterlimit="10" x1="83.7" y1="51.2" x2="80.1" y2="34.3"/>
			
				<line fill="none" stroke="#FFFFFF" stroke-width="6" stroke-linecap="round" stroke-miterlimit="10" x1="52.5" y1="103.4" x2="48" y2="75.3"/>
			
				<line fill="none" stroke="#FFFFFF" stroke-width="6" stroke-linecap="round" stroke-miterlimit="10" x1="102.1" y1="92.9" x2="83.7" y2="97"/>
		</g>
	</g>
</g>
</svg>
