<?xml version="1.0" encoding="utf-8"?>
<!-- Generator: Adobe Illustrator 18.1.1, SVG Export Plug-In . SVG Version: 6.00 Build 0)  -->
<svg version="1.1" id="Layer_1" xmlns="http://www.w3.org/2000/svg" xmlns:xlink="http://www.w3.org/1999/xlink" x="0px" y="0px"
	 viewBox="0 0 212 212" enable-background="new 0 0 212 212" xml:space="preserve">
<path fill="#010201" d="M192.4,209.2H19.6c-8.5,0-15.4-6.9-15.4-15.4V21.1c0-8.5,6.9-15.4,15.4-15.4h172.7c8.5,0,15.4,6.9,15.4,15.4
	v172.7C207.7,202.3,200.9,209.2,192.4,209.2z"/>
<g>
	<path fill="#FFFFFF" d="M47.7,54.7l47.3,53.7c2.7,3.1,6.6,4.8,10.6,4.8c4.1,0,7.9-1.8,10.6-4.8l46.5-52.8c0.4-0.4,0.8-0.8,1.3-1
		c-2-0.9-4.1-1.3-6.4-1.3H53.7c-2.2,0-4.3,0.4-6.2,1.2C47.6,54.5,47.6,54.6,47.7,54.7z"/>
	<path fill="#FFFFFF" d="M171.3,60.8c-0.2,0.5-0.5,1.1-0.9,1.5l-46.5,52.8c-4.6,5.2-11.2,8.2-18.2,8.2c-7,0-13.6-3-18.2-8.2
		L40.1,61.4C40,61.2,40,61.1,39.9,61c-1.5,2.4-2.3,5.2-2.3,8.3V142c0,8.9,7.2,16.1,16.1,16.1h104.1c8.9,0,16.1-7.2,16.1-16.1V69.3
		C173.8,66.2,172.9,63.2,171.3,60.8z"/>
</g>
</svg>
