<?xml version="1.0" encoding="utf-8"?>
<!-- Generator: Adobe Illustrator 18.1.1, SVG Export Plug-In . SVG Version: 6.00 Build 0)  -->
<svg version="1.1" id="Layer_1" xmlns="http://www.w3.org/2000/svg" xmlns:xlink="http://www.w3.org/1999/xlink" x="0px" y="0px"
	 viewBox="0 0 212 212" enable-background="new 0 0 212 212" xml:space="preserve">
<path fill="#010201" d="M190.2,210H22.4c-10.7,0-19.3-8.6-19.3-19.3V22.9c0-10.7,8.6-19.3,19.3-19.3h167.8
	c10.7,0,19.3,8.6,19.3,19.3v167.8C209.5,201.3,200.8,210,190.2,210z"/>
<path fill="#FFFFFF" d="M76.7,210c5.7-1.7,8.4-4.3,9.9-6.5c5.2-7.4,0.7-16.4-0.1-38.4c-0.2-4.5-0.1-8.1-0.1-10.5
	c-20.8,4.5-25.1-9-25.1-9c-3.3-8.7-8.3-11-8.3-11c-6.8-4.6,0.5-4.6,0.5-4.6c7.5,0.5,11.5,7.7,11.5,7.7c6.7,11.5,17.4,8.2,21.8,6.2
	c0.6-4.9,2.6-8.2,4.7-10.1c-16.6-1.7-34-8.2-34-37.1c0-8.2,3-14.9,7.7-20.2c-0.7-1.9-3.3-9.6,0.7-19.9c0,0,6.3-2,20.5,7.7
	c6.1-1.6,12.4-2.5,18.7-2.5c6.3,0,12.7,0.9,18.7,2.5c14.2-9.7,20.5-7.7,20.5-7.7c4.1,10.3,1.5,18.1,0.7,19.9
	c4.8,5.2,7.7,12,7.7,20.2c0,28.9-17.4,35.3-34.1,37.1c2.7,2.4,5.1,6.9,5.1,14c0,6.2,0.6,10.6-0.1,17.1c-3,28.3-3,33.5,0.2,38.2
	c1.4,2,4,4.8,9.2,6.8L76.7,210z"/>
</svg>
