<?xml version="1.0" encoding="utf-8"?>
<!-- Generator: Adobe Illustrator 18.1.1, SVG Export Plug-In . SVG Version: 6.00 Build 0)  -->
<svg version="1.1" id="Layer_1" xmlns="http://www.w3.org/2000/svg" xmlns:xlink="http://www.w3.org/1999/xlink" x="0px" y="0px"
	 viewBox="0 0 212 212" enable-background="new 0 0 212 212" xml:space="preserve">
<g>
	<path fill="#010201" d="M189.3,210H23.3c-11.3,0-20.4-9.1-20.4-20.4V23.5C2.9,12.2,12,3.1,23.3,3.1h166.1
		c11.3,0,20.4,9.1,20.4,20.4v166.1C209.8,200.9,200.6,210,189.3,210z"/>
	<g>
		<g>
			<g>
				<path fill="#FEFEFE" d="M114.3,92.4c1.7-1.9,3.1-3.8,4.8-5.5c5.4-5.1,11.7-7.6,19.1-7.5c4.1,0,8.1,0.3,12,1.5
					c9,2.6,14.2,8.8,16.7,17.5c1.9,6.6,2.2,13.3,2.2,20.1c0,14.3,0,28.6,0,42.9c0,1.3-0.4,1.7-1.7,1.7c-7.4-0.1-14.7-0.1-22.1,0
					c-1.3,0-1.6-0.4-1.6-1.6c0-13.6,0.1-27.2,0-40.8c0-3.4-0.2-6.8-1.2-10.1c-1.8-6.1-6.1-9.2-12.5-8.9c-8.7,0.5-13.3,4.8-14.4,13.7
					c-0.3,2.1-0.4,4.2-0.4,6.4c0,13.2,0,26.4,0,39.7c0,1.3-0.3,1.7-1.7,1.7c-7.4-0.1-14.8-0.1-22.2,0c-1.2,0-1.5-0.3-1.5-1.5
					c0-26.2,0-52.4,0-78.5c0-1.3,0.4-1.6,1.6-1.6c7,0.1,14.1,0.1,21.1,0c1.3,0,1.6,0.4,1.6,1.6C114.3,86.2,114.3,89.3,114.3,92.4z"
					/>
				<path fill="#FEFEFE" d="M74,122.4c0,13,0,25.9,0,38.9c0,1.4-0.4,1.9-1.8,1.9c-7.4-0.1-14.7-0.1-22.1,0c-1.2,0-1.5-0.3-1.5-1.5
					c0-26.2,0-52.4,0-78.7c0-1.4,0.4-1.6,2.5-1.4c6.8,0.8,13.7,0.7,20.5,0c2.2-0.2,2.5,0.3,2.5,1.7C74,96.2,74,109.3,74,122.4z"/>
				<path fill="#FEFEFE" d="M76,55.4c0,8.3-6.9,15-15.2,14.8c-7.5-0.3-13.7-6.3-14.1-13.8c-0.5-8.5,6.3-15.6,14.7-15.6
					C69.4,40.8,76,47.4,76,55.4z"/>
			</g>
		</g>
	</g>
</g>
</svg>
