<?xml version="1.0" encoding="utf-8"?>
<!-- Generator: Adobe Illustrator 18.1.1, SVG Export Plug-In . SVG Version: 6.00 Build 0)  -->
<svg version="1.1" id="Layer_1" xmlns="http://www.w3.org/2000/svg" xmlns:xlink="http://www.w3.org/1999/xlink" x="0px" y="0px"
	 viewBox="0 0 512 120" enable-background="new 0 0 512 120" xml:space="preserve">
<text transform="matrix(1 0 0 1 11.0723 71.2354)" fill="#FFFFFF" font-family="'Beauty'" font-size="99.5062">Zakaria Bennane</text>
<g>
	<g>
		<g>
			<g>
				<g>
					<path fill="#FFFFFF" d="M507.7,112.8c0.7,0.1,0.5-0.6,0.6-0.7C507.1,112.2,507.7,113,507.7,112.8z"/>
					<polygon fill="#FFFFFF" points="495.4,113.6 495.6,113.3 493.7,113.9 					"/>
					<path fill="#FFFFFF" d="M483.9,112.8c1,1.3,4.2,0.1,6.2,0.7l0.3,0.3l1-0.9C488.9,112.8,485.6,113.2,483.9,112.8z"/>
					<path fill="#FFFFFF" d="M478,109.7c0.3,0.5-1.4,0.3,1.4,0.2c-0.1-0.1-0.2-0.1-0.2-0.1C478.9,109.8,478.6,109.8,478,109.7z"/>
					<path fill="#FFFFFF" d="M479.2,109.9C480.4,109.9,478.4,109.4,479.2,109.9L479.2,109.9z"/>
					<path fill="#FFFFFF" d="M473.6,109.7l1.6-0.3c-0.3-0.3-1.7-0.5-1.2-0.6C472.4,108.9,472.7,109.2,473.6,109.7z"/>
					<path fill="#FFFFFF" d="M472,110.5l0.8-0.1C472.7,110.3,472.5,110.2,472,110.5z"/>
					<path fill="#FFFFFF" d="M474.6,110.1l-1.8,0.3c0.2,0.2,0.2,0.6,0.8-0.1C473.5,110.7,473.9,110.3,474.6,110.1z"/>
					<path fill="#FFFFFF" d="M475.6,110.4c0.9,0.3,2,0.6,0.4,0.9C479,111.3,478.7,110.4,475.6,110.4z"/>
					<path fill="#FFFFFF" d="M483.2,114l1.2,0.4l1.1-0.3C484.9,114.3,483.2,113.6,483.2,114z"/>
					<path fill="#FFFFFF" d="M463.8,108.3c-0.1,0.2,0.5,0.7,0.6,1.1l1.2-0.2C465,108.9,463.8,108.6,463.8,108.3z"/>
					<path fill="#FFFFFF" d="M464.3,109.3l-1.8,0.3C464.1,109.8,464.4,109.6,464.3,109.3z"/>
					<polygon fill="#FFFFFF" points="471.6,111.8 474.6,111.1 471.1,111.8 					"/>
					<polygon fill="#FFFFFF" points="457.1,107.6 458.1,107.1 456.3,107.8 					"/>
					<path fill="#FFFFFF" d="M452.6,107.3c0.8-0.4-0.9-0.9-0.1-1.2c-1.2,0-2.3,0.3-3.2,0.6C450.3,106.6,451.3,106.8,452.6,107.3z"/>
					<path fill="#FFFFFF" d="M447.7,107.1c0.5-0.1,1-0.2,1.6-0.4C448.7,106.8,448.2,106.9,447.7,107.1z"/>
					<path fill="#FFFFFF" d="M459.6,109.2c-0.1-0.2-0.3-0.6-1.3-0.9l0.6,0.8C459.1,109.1,459.3,109.2,459.6,109.2z"/>
					<path fill="#FFFFFF" d="M458.9,109.1L458.9,109.1c-0.8-0.1-1.3-0.2-1.5-0.2C457.6,109,458.1,109,458.9,109.1z"/>
					<path fill="#FFFFFF" d="M459.8,109.2c-0.1,0-0.1,0-0.2,0C459.6,109.3,459.7,109.3,459.8,109.2z"/>
					<path fill="#FFFFFF" d="M467.1,110.8c-1.1,0.3-3.2,0.5-1.2,1.4C466.7,111.7,465.5,111.2,467.1,110.8z"/>
					<path fill="#FFFFFF" d="M460.5,110.2l1.8,0.3c0-0.2-0.3-0.5,0.2-0.7L460.5,110.2z"/>
					<polygon fill="#FFFFFF" points="459.6,110.3 460.5,110.2 459.9,110.1 					"/>
					<path fill="#FFFFFF" d="M450.8,108.1c-0.8,0.2-1.7,0.2-2.7,0.1c1.1,0.2,2.1,0.4,3.2,0.5C451.4,108.6,451.9,108.2,450.8,108.1z"
						/>
					<path fill="#FFFFFF" d="M454.7,108.7c-0.1,0-0.1,0-0.2,0C454.7,108.8,454.7,108.8,454.7,108.7z"/>
					<path fill="#FFFFFF" d="M438.3,107.3c0,0,0.1,0.1,0.1,0.1c0,0,0-0.1,0-0.1L438.3,107.3z"/>
					<path fill="#FFFFFF" d="M451.4,108.9c0.8,0.2,1.3,0.1,1.8-0.1c-0.6,0-1.2,0-1.9-0.1C451.2,108.9,451.2,108.9,451.4,108.9z"/>
					<path fill="#FFFFFF" d="M444.9,107.2c0.4,0.2,0.9,0.4,1.4,0.5C445.9,107.5,445.1,107,444.9,107.2z"/>
					<path fill="#FFFFFF" d="M454.3,108.5c0,0,0.1,0,0.1,0C454.2,108.3,454.2,108.4,454.3,108.5z"/>
					<path fill="#FFFFFF" d="M454.3,108.5c-0.4,0.1-0.8,0.2-1.1,0.3c0.5,0,1,0,1.4-0.1C454.5,108.6,454.4,108.6,454.3,108.5z"/>
					<path fill="#FFFFFF" d="M434.9,111.7c0.2-0.7,2.4-1.1,4.1-0.2c1.8-0.3,0.9-2.7-0.6-4c-0.1,0.3-0.1,0.6-2,0.8
						c0.6,0.4,4,1.2,2.4,1.7c-2.5,0.1-2-0.4-3.1-0.9c0.9,0.9-3.2,1-2.8,2.2l2.2-0.3C435.2,111.2,434.4,111.5,434.9,111.7z"/>
					<path fill="#FFFFFF" d="M442,107.9l0.8,0c-0.9-0.2-1.4-0.5-2.5-1.2c-1.3,0.2-1.6,0.4-1.7,0.6l3.7,0.4L442,107.9z"/>
					<path fill="#FFFFFF" d="M446.1,108.2c-0.7,0.7-2.5,0.8-1.5,1.7c2.2,0.2,1.6-0.5,3-0.7C444,109.1,448.7,108.9,446.1,108.2
						c0.7,0,1.4,0,2,0.1c-0.6-0.1-1.3-0.3-1.8-0.5c0,0,0.1,0,0.1,0.1l0,0l0,0c0.1,0.1,0.2,0.2,0,0.1c0,0-0.1,0-0.1,0
						C446.3,108,446.2,108.1,446.1,108.2c-1-0.3-0.1-0.2,0.2-0.3c0,0,0-0.1,0.1-0.1l0,0l-3.6,0.1C443.5,108,444.4,108.1,446.1,108.2
						z"/>
					<path fill="#FFFFFF" d="M463.8,113.5c-0.1-0.1-0.1-0.1-0.1-0.2C463.5,113.4,463.4,113.5,463.8,113.5z"/>
					<path fill="#FFFFFF" d="M462.4,112.9c0.3-0.1,0.5-0.3,1.4-0.2c0.7,0.3,0,0.3,0,0.6c0.5-0.1,1.8-0.4,0.3-0.9l-0.3,0.1
						c-1.4-0.4-3.2-1.5-2.9-1.5C461.1,111.7,461.5,112.2,462.4,112.9z"/>
					<path fill="#FFFFFF" d="M454.1,110.7l-3,0.1l1.5,0.8l0-0.4C454.2,111.5,453.9,111,454.1,110.7z"/>
					<polygon fill="#FFFFFF" points="438,106.9 438.5,106.2 436.6,107.1 					"/>
					<polygon fill="#FFFFFF" points="434.1,106.7 434.3,106 433.2,106.4 					"/>
					<path fill="#FFFFFF" d="M213.8,108.4l-0.9,0.2C213.3,108.6,213.6,108.5,213.8,108.4z"/>
					<path fill="#FFFFFF" d="M220.2,108.3l0.1-0.3C220,108.2,219.9,108.3,220.2,108.3z"/>
					<path fill="#FFFFFF" d="M338.2,100.8c-1.3-0.7-2.7-1.7-2.5-0.9l0.4,0.7C337,100.6,337.7,100.7,338.2,100.8z"/>
					<path fill="#FFFFFF" d="M272.4,103.9c0.1,0.1,0.2,0.1,0.4,0.2c0.3-0.3,0.6-0.5,0.9-0.7C273.3,103.6,272.9,103.7,272.4,103.9z"
						/>
					<path fill="#FFFFFF" d="M271.5,107l-1.7-0.5C270.2,106.7,270.8,106.8,271.5,107z"/>
					<path fill="#FFFFFF" d="M179,110.4l-1,0.8C179.6,111.1,178.9,110.7,179,110.4z"/>
					<path fill="#FFFFFF" d="M394.1,104c-1.1-0.4-2-0.5-2.7-0.6C392.7,103.9,393.7,104.6,394.1,104z"/>
					<path fill="#FFFFFF" d="M216.1,100.6c-0.5,0.1-0.8,0.3-0.7,0.5C215.9,100.9,216.2,100.7,216.1,100.6z"/>
					<path fill="#FFFFFF" d="M388.2,103.2c0.2,0.1,0.4,0.1,0.6,0.2c0.8-0.1,1.6-0.1,2.6,0C390.4,103,389.3,102.7,388.2,103.2z"/>
					<path fill="#FFFFFF" d="M52.8,117.1c-0.1,0-0.2,0-0.3-0.1C52.5,117.2,52.6,117.2,52.8,117.1z"/>
					<path fill="#FFFFFF" d="M15.5,112.3c0.4-0.1,0.9-0.1,1.5-0.2C16.7,112.1,16.3,112.1,15.5,112.3z"/>
					<path fill="#FFFFFF" d="M418.4,105.1C419.3,105.2,418.6,105.1,418.4,105.1L418.4,105.1z"/>
					<path fill="#FFFFFF" d="M422.2,108.4c-0.2,0.1-0.3,0.2-0.4,0.3C421.9,108.5,422.1,108.4,422.2,108.4z"/>
					<path fill="#FFFFFF" d="M379.7,107.2C379.7,107.2,379.6,107.2,379.7,107.2C379.8,107.4,379.8,107.4,379.7,107.2z"/>
					<path fill="#FFFFFF" d="M419.7,105.6c-0.3-0.1-0.7-0.2-1-0.3C418.8,105.3,419.1,105.4,419.7,105.6z"/>
					<path fill="#FFFFFF" d="M419.5,105.2c0.3,0.1,0.5,0.1,0.7,0.1C420.3,105.2,420.3,105.1,419.5,105.2z"/>
					<path fill="#FFFFFF" d="M417.3,105.1c0.5,0,0.9,0.1,1.3,0.2c-0.2-0.1-0.2-0.1-0.2-0.1C418.2,105.1,417.8,105.1,417.3,105.1z"/>
					<path fill="#FFFFFF" d="M120.3,110.7c-0.1,0-0.1,0-0.2-0.1C119.3,111,119.7,110.9,120.3,110.7z"/>
					<path fill="#FFFFFF" d="M316.4,107.8C316.5,107.8,316.5,107.8,316.4,107.8C316.5,107.8,316.5,107.8,316.4,107.8L316.4,107.8z"
						/>
					<path fill="#FFFFFF" d="M313.5,108.3c1.3-0.9,2-0.7,3-0.5l-0.9-2.2L313.5,108.3z"/>
					<path fill="#FFFFFF" d="M198.6,109.1l2.1,0.6c-2.5,1.1-4.3,0.8-2.3,1.7c0.2-2.3,8.1-0.5,8.3-2.8l1.4,0.4
						c-0.4,0-0.5,0.1-0.8,0.1c2.7,1,1.9-1.7,5.4-1.5c1.2,0.1,2,0.5,1.2,0.8l2.7-0.6c0.8,0,0.6,0.4-0.2,0.4l4.1-0.3l0,0.1
						c0.6-0.4,1.9-1,2.5-1.2c1,0.3-0.5,0.3-0.2,0.5l2.2-0.6c0.9,0.6-0.9,1.2-2.5,1.2c2.2,2.3,1.9-0.7,6.4,0.6l-2.1,0.3
						c1.4,1.3,3.1,0.8,5.5,1.6c-0.6-0.4-4.9-2-2.4-2.6c0.7,0.2,1.6,0.2,2.9-0.2c0,0.8,1.3,0.6,2.9,0.5l-0.1,1.1
						c1.7-0.3,1.6-0.9,2.6-1.4c1.9,0.1,2.4,0.9,2.8,1.6c3.1,0.1-2.2-1.3,1.5-1.6c2.6,0.4,4.4-0.1,7.5-0.8c1.8,0.4-0.3,0.7,0.3,1
						l1.6-0.9c0.4,0,0.3,0.3,0.2,0.4c1.4-0.4,0.1-1.1,2.2-1.4c0.6-1.2,4.4,1.8,7,0.4c0.7,0.3-0.3,0.7-0.1,1.1
						c3.6-0.9,3.1-0.6,6.1-1.8l2.5,0.7c-1.9-0.8,0.5-1.8,2.6-2.6c-0.7-0.4-1.2-0.7-1.6-0.9l3.3-0.6c0.4,0.2,0.1,0.6-0.5,1
						c0.2-0.1,0.4-0.2,0.6-0.3c1.2,0.4,0.6,1-0.3,1.6c-0.4-0.2-0.8-0.4-1.2-0.7c-0.8,0.7-1.6,1.4-1.4,2c0.2-0.1,0.6-0.2,1.1-0.3
						c-0.2,0.2-0.4,0.3-0.3,0.4c0.1,0.1,0.5-0.1,1-0.4l0.8,1.2l0.2-0.5l4.3,0.8c3.1-1.2,5.8-3,10.8-3.4c-1.2,0.9-0.3,1.4-0.4,2.5
						c-1.3-1.1-3.8,0.4-6.4,0.1c1.3,0.1,1,0.6,0.7,0.8l4.6-0.9c-0.1,0.9,1,0.7,2.1,1c-0.9-1.7,3.4-1.1,5.3-1.6
						c0.1,0.6-0.3,1.2-2.6,1c2.5,1.3,3.3-1.9,5.7-0.8c-0.6,0-0.8-0.1-1.1,0.2c1.3-0.5,4.5,0,3.7,0.5l-0.6,0
						c3.7,0.3,11.2,0.2,11.8-1.2c0,0.2-0.5,1.7-0.8,2l6.7-4.7c-0.6,1.2,1.5,4.2-1.5,4.9c0.9,0.2,1.9,0.4,3.8,0.1
						c-0.6-0.2-1.4-1.8-0.6-1.9c2.2,1.5,1.5,0.8,4.3,2.1c-0.9-0.3,0.2-2.2,1.6-2.1c-0.2,0.3,0.1,1.9-0.5,2.1l3.6-1.8
						c-0.9,0.3-0.2,1.6,0.6,2.2c-0.4-0.4,3,0.1,4,0l-1.5-0.5c4,0.4,4-2.6,8-2.3c-0.5,0.4-1.3,2.4,0.7,2.7c1-0.9,4.2-4.5,7.8-5.1
						l0.6,0.6l2.7-0.5c-1.7,1.4-6.5,4.3-9.1,5.4c1.5,0.5,0.4,0.7,2.6,0.7c0.8,0.6-1.2,0.7-1.9,0.7l5.2,0.6c-0.2-1.2,4-1,3.8-1.9
						l-5.7,0.9c-0.2-1.2,3.4-3.1,7-2.7c0.9,0.5-0.8,2-0.7,2.4c0.5-0.4,3.5-0.6,3.8-0.3l-1.6,0.5c2,0.5,3.4-1.4,5.8-0.2
						c0.8,0.1,2.5,1.6,2.6,0.9c-1.3-1.4-1.4-5.4-0.4-6.3c0.3,0.1,4.4,1.5,5.3,2.1c1.3,1.1-2.2,2.3-1.1,3.3c0.1-0.3,0.9-0.7,1.2-0.8
						c0.9,0.3-0.4,0.9,1.5,0.9c0.4-1.2,3.9,0.3,1-0.9c1.9-0.2,2,0.4,4.2,0.5c-0.7-0.8,2.1-2.4,4.1-2.6c-0.1,0.3,0.3,0.7,0.5,0.9
						c3.9,0.3,5.9,1,9.5,1.2c0.3,0.3,2,0.7,1.3,1.2c0.5-0.2,1-0.5,2.2-0.5c2.1,1.1-2.5,0-0.9,1.3c0.2-0.7,2.9-0.7,4.6-1.1
						c-0.4-1.1-3.7-0.4-5.3-0.1c0.1-1.4,2.9-2.8,6.8-3.2c3-0.2,1.2,1,1.8,0.8c5.6,0.6,5-2.2,9.6-0.8c1.8,1.1,0,1.8,0.3,2.5
						c-2.5,0.2-3.7-0.9-5.4-1l2,0.6c-0.8,0.2-2.4,0.3-3.3,0c1.5,0.9,9.5,0.9,13.8,2c0.8-0.2,2.2-0.5,1.5-0.9l-1.4,0
						c-1.2-0.8,2.7-0.8,1-1.3c1.9-0.4,4-1,6.6-0.4l0.4,1.1c0-0.3-1.6-0.8-2.4-0.5c1.1-0.4,3.9,1.7,5.2,0.5l-1.8-0.9
						c1.9-0.4,4.3-1.3,6.6-0.8c-1-1.1-0.5,0.1-2.1-1.3c1.3,1.6-5.9-0.5-3.7,1.2c-1.6-1.5-2.9-0.8-5-2.2c0,0.3,0.7,0.7-1.2,0.4
						c-0.1,0.1-0.3,0.2-0.4,0.3c-0.1,0-0.1,0-0.1,0c0,0,0.1,0,0.1,0c-0.1,0-0.1,0.1,0,0c0.4,0.2,0.8,0.4,0.9,0.6
						c-1,0.7-4.1,0.4-5.2,0.8c-1.1-0.3,0.5-0.4-0.1-0.8l-1.6,0.5c-0.1-0.8-3-1.5-0.2-1.7l-2.4-0.2c-1.4-0.5-3.4-0.9-4.6-0.6
						c-1.1-0.3-3,0.6-1.9,0.1c0,0-1,0-1.9,0.1c-1,0.1-1.9,0.1-1.9,0.1l0-0.2c-3.8-0.3-7.8,0.8-12.1-0.9c-1.3,0.1-2.6,0.3-4.7-0.1
						l-0.4-0.7c-1.6,0.1-4.9-1-5.6-0.3c-1.7-1.9-7.9-0.9-10.7-1.3l-0.2,0.9c-2-0.1-3.9,0-6.4,0.2l0.1,0.8c-2.1,0.5-5.4-0.8-8.8-0.9
						c0.2-0.3,1.1-0.2,1.7,0c-3.9-1.9-8.5,0.9-12.1-0.6c-0.9,0.2-1.6,0.1-2.2-0.1c0.1,0,0.2,0,0.2,0c-0.1,0-0.2,0-0.4,0
						c-0.4-0.1-0.8-0.3-1.2-0.4c0.4,0.2,0.7,0.4,1,0.4c-0.7,0-1.8,0.1-2.8,0.2l-0.4-0.8c-0.1,0-0.2,0-0.2,0c-1-0.3-0.8,0.4-0.3,1
						c-0.5,0.1-1,0.3-1.4,0.5c-0.8-1.3-2.7,0.4-3.8-1.1c-0.7,0.7-5.2,0.4-5.8,1.8c0-0.2-0.3-0.3,0.2-0.3c-1.1-0.2-2.3-0.4-3.3,0
						l-0.5-1.1l-2.6,1.3c-1.5-0.7-2.1-1.1-0.6-1.8c-3.7,1.1-3,0.4-6.1,1.5l0.2-0.7c-1.1,0-2.9,0.9-3.6,0.3
						c-2.5-1.3-12.3-0.4-18.7-1.7c1.2,2-3-0.9-3.2,0.6c-0.4-0.5-1.3-0.8-0.2-1.1c-3.3,0.4-4.9-0.8-7.2,0.5c-0.4-0.5,0.7-0.7,0.4-1
						c-0.3,0.1-1,0.4-1.4,0.1c-0.3-0.3,0.5-0.4,1-0.6c-3.3,0.1-3.7,1.5-3.9,2.9c-1.7-0.6-2.5-0.6-3.8,0.3c-0.6-0.4-1.6-0.9,0.5-1.1
						c-1.2-0.1-7.1-0.7-7.3,0.4c-0.4-0.3-1.6-0.1-1.9,0c-2.6-0.1-2.9-0.2-5.4-0.1l0.7,0.2c-1,1.3-2.1,0.3-4.2,0.4l0.1-0.1
						c-4.8-0.9-2,0.5-6.7-0.5l0.3,0.8c-0.4,1.8-4.2-1-6.9-0.3l1,0.5c-1.5,0.6-4.2-2.3-5.7-2.5c-0.3-0.1,0.5-0.3,1-0.4
						c-3.9-1-0.5,1.1-3.4,1.4c-0.5-0.6,0.7-1.5-1.3-1.6c-1-0.4-5.7,1.9-8.4,0.9c0.6,0.4,1.2,0.9-0.2,1.2c-2.1,0.2-5.6-1.5-7.5-0.1
						c-0.3-0.1-0.4-0.2-0.4-0.3c-1.6,0.4-5.1,0.7-6.1,1.5c-1.5-2.8-9.8,1.6-9.9-1l-4.9,0.3l0.1-0.3c-3.1-0.1-4.2,0.6-5.3,1.3
						c-0.7-0.1-0.2-0.4-0.2-0.5c-4.6-0.4-5-0.2-8.8,1.2l-0.4-0.8c-1,0.5-6.6-1.1-11.1,0.1c0-0.1,0.1-0.3,0.5-0.4
						c-5,1.2-12.1-1.8-13.8,1.4l-3.3,0.9c4.3,0-0.6,1.4,1.2,1.8c-1.7,0.3-4.4-0.7-2.3-1l0.3,0.1c0.7-1.6-5.4-0.3-5.3-1.4
						c-8.4,0.5-16.7,0.1-24.6,0.5l1,1.2l-2.8,0.1c-0.7-0.2-1-0.9,0.9-1c-1.1-0.6-3.3,0.8-3.3,1c-3.9-0.3,1.4-1.5,0.2-1.5l-1.6,0.2
						l0.4,0.1c-1.3,0.6-1.4,1.1-3.7,1.2c-1.5-0.2-0.8-0.7-1.4-0.7c0-0.1-0.2-0.1-0.9,0l-3.5,0.1l1.4,0.9c-1.5,0.6-3.3,0.2-1.6,1.2
						c-2.5-1.6-13,0.2-14.5-0.2c-2.1,0.8-4.2,1-6.9,1.1c0.7,0.2,1.1,1.2-1.1,1.3c0.7-2.3-4.2-0.7-6.2-2.2c1.7,1-6.4,0.7-3.8,2.1
						c-1.9-0.1-0.2-0.8-1.6-1.3c-4.4,1.2-10,0.1-15.5,0.8c-0.1,0.3,0.9,0.7-0.3,1.2l-3-1.3c-1.1,0.2-0.9,1.8-3,0.9
						c0.3,0.2,0.8,0.6,0,0.7c-11-0.7-22.2,2.8-33.5,0.8c1.5,0.5,0.5,0.6-0.6,0.7c0.8,0.1,0,0.7,0.2,1.1l-4.7-0.8
						c-0.8,1.2-5,0.4-5.4,1.5l1.5-0.3c-1.9,1.4,2.9,2.6,2.8,4.3c2.1-1.6,5.9,1.7,9.4-0.6c0.8,0.3-0.6,0.6-0.2,0.9
						c0.9-0.8,1.9-1,4-0.8l-0.2,0.2c5.7-0.6,8.2-0.1,14.7-0.1l-0.5-0.8c1.4,0,1.7,0.2,2.4,0.4c1.5-1.3-3.9,0.2-2.5-1.2
						c1.9,1.5,9.7-0.7,11.1,1.1c2.1-0.1-0.7-0.9,1.4-1l0.6,0.5l0.5-0.7c1.4,0,2.1,0.6,2.2,1c-0.3,0-1,0.2-1.3,0.2
						c1.8,0.5,5.1-0.6,5.7-0.4l-2.1-0.2c5.8-0.9,12.9-0.7,18.4-2.1l-0.5-0.4c4.2-1,3.5,0.2,8.1-0.5l-0.2,0.1
						c0.9-0.4,2.2-0.7,3.4-0.8c-1.2,0.5,2.3,0.7,0.8,1.3c4.6-1.1,2.3-0.7,5.2-2.4l0.7,0.6c1-0.6,1.1-0.9,3.4-1.3
						c-1.9,0.7,1.6,0.9-0.6,1.7c5,1.1,7.2-1.8,9.6,0c2.2-1.9-4.3-0.7-3.1-1.2c-1.1-0.5,1.8-1.4,3.3-1.3c1.6-0.1,2.8,2.1,6.8,1.8
						c-0.4,0-0.4,0.2-0.8,0.2c1.5,0.4,2.9-0.8,4.7-0.2c1-1.1,2.4-0.1,2.6-1.4l-3.6,0.5c2-0.5,3.9-2.2,7.3-1.6
						c-0.2,0.3-1.2,0.7-1.9,0.9c1,0.3,1.9-0.4,2.9,0c-0.2,1.4-4.4,0.5-6.5,1.7c1.1,0.5,4.1-1.2,3.1,0.3c1.5-1.9,3.9,0,6.5-1.6
						l-0.1,0.8c0.4-0.2,1.3-0.6,2.1-0.6l-1.4,1.1c2.1-1,4.2,0.5,6.3-0.1c-4.4,0.3-1-0.9-2.9-1.4c5.3-1.4,3.2,1.9,9.2,1.2
						c-0.8,0.2-3.1-0.3-1.8-0.8c1.2,0.1,2.7,0.3,3.4,0.7c4-0.4-0.7-0.8,1-1.4c1.4,0.9,1.9-0.5,3.7-0.9l0.1,0.8
						c4.6,0.3,1.1-1.8,5.2-1.3l-1.7,1.2l2.1-0.4l-0.4,1c2.3-0.8,3-0.7,5.3-0.5c-0.6-0.6,0.2-1.5,2.2-1.6c1.4,0.4-0.7,0.8,2.1,0.6
						c-0.6,0.5-1.3,1.2-2.6,0.5c-0.1,0.3-0.6,0.5-0.7,0.8c1.5,0.5,3.7-0.1,4.7-0.1c-0.4,0-0.9,0-1.1-0.1l4.1-1.3
						c0.7,0.3,0.2,0.5-0.3,0.8c0.8-0.1,1.4-0.5,2.6-0.7c-0.3,0.7-0.2,1.4-1.9,1.8l3.9-0.9c0.3,0.3,2.1,0.7,1.6,1
						c2.2,0.3,5.3-1.5,8.2-1.1c0.1-0.1,0.4-0.3,1.1-0.4c2.7,0,5.2,0.8,8.4-0.3l1.9,1.1c2.5-0.4-2.5-1.4,1.7-2c3-0.5,1.1,1,2.2,1.3
						c1.5-0.7,4-2,6.8-1.1C200.1,109.1,199.4,108.9,198.6,109.1z M229.7,107.8c-0.6,0.2-1.8,0.7-2.2,0.2
						C228.1,107.1,228.6,107.5,229.7,107.8z M277,105.5c-0.5,0.3-1.1,0.1-1.9-0.2C275.7,105.3,276.3,105.3,277,105.5z M409.3,105.1
						C409.3,105.1,409.3,105.1,409.3,105.1C407.9,104.7,408.4,104.9,409.3,105.1z M412.1,105.7c0.3-0.1,0.3-0.2,0.2-0.3
						c-0.2,0.2-0.8,0.2-1.6,0C410.9,105.6,411.2,105.8,412.1,105.7z M111.1,105.7l0.6,0.2C110.5,106.2,110.8,106,111.1,105.7z"/>
					<path fill="#FFFFFF" d="M271.6,106.6c-0.2-0.1-0.2-0.3-0.3-0.4C271.2,106.3,271.1,106.5,271.6,106.6z"/>
					<path fill="#FFFFFF" d="M179.2,110.2L179.2,110.2c-0.1,0-0.2,0.1-0.2,0.1L179.2,110.2z"/>
					<path fill="#FFFFFF" d="M368.4,109.8c-0.6-0.1-0.9-0.3-1.1-0.5C367.2,109.5,367.5,109.7,368.4,109.8z"/>
					<path fill="#FFFFFF" d="M427,105.4l-1.8,0.1c0.9,0,1.2,0.2,1.6,0.4C426.8,105.7,426.5,105.4,427,105.4z"/>
					<path fill="#FFFFFF" d="M442.1,111.8c0.3-0.1,0.6,0,0.8,0l0-0.4C441.8,111.3,441,111.5,442.1,111.8z"/>
					<path fill="#FFFFFF" d="M428.5,108.3c0.1,0.7,1.2,0.6,2.5,0.5c-0.1,0-0.1,0-0.2,0C431.2,107.9,429.8,108.1,428.5,108.3z"/>
					<path fill="#FFFFFF" d="M431.2,108.8c0.4,0,0.8,0,1.2,0.1C432.6,108.5,431.9,108.8,431.2,108.8z"/>
					<path fill="#FFFFFF" d="M415.7,105.5c0.6,0.2,0.4-0.9,0.8-0.5C417.2,104.1,412.4,105.7,415.7,105.5z"/>
					<polygon fill="#FFFFFF" points="429.3,110.6 428.9,109.8 428.1,110.4 					"/>
					<path fill="#FFFFFF" d="M419.4,109.2l2,0.4c0-0.1,0.2-0.2,0.6-0.2C420.8,109.3,419.4,109,419.4,109.2z"/>
					<path fill="#FFFFFF" d="M422,109.4c0.6,0.1,1.3,0.1,1.6,0C423.3,109.3,422.5,109.3,422,109.4z"/>
					<polygon fill="#FFFFFF" points="426.5,110.7 426,110.5 424.5,110.3 					"/>
					<path fill="#FFFFFF" d="M397.9,107.5l-2.2,0.1c-0.2,0.3,0.3,0.5,1.2,0.4C397.4,107.8,398.2,107.8,397.9,107.5z"/>
					<path fill="#FFFFFF" d="M404.4,110.2c-0.6-0.2-0.6-0.4-0.9-0.7l-0.1,1L404.4,110.2z"/>
					<path fill="#FFFFFF" d="M398,110.1c-0.2,0.3-3.2,0.6-0.5,0.7C397.8,110.5,400,110.4,398,110.1z"/>
					<polygon fill="#FFFFFF" points="365.1,106.7 365.7,106.8 365.7,105 					"/>
					<path fill="#FFFFFF" d="M335.9,109.6c2.6,0.5,0.7-1,3-0.5c0.6-0.4-1.9-0.5-1.3-0.8C336,108.7,335.2,108.4,335.9,109.6z"/>
					<path fill="#FFFFFF" d="M337.6,108.3c0.3-0.1,0.5-0.1,0.8-0.2C338,108.2,337.8,108.2,337.6,108.3z"/>
					<polygon fill="#FFFFFF" points="9.3,111.8 7.6,111.6 8.8,112.1 					"/>
					<path fill="#FFFFFF" d="M6.2,113.3l-0.5-1.1l-0.9,1.1C5.2,113.2,5.9,113.1,6.2,113.3z"/>
					<path fill="#FFFFFF" d="M234.3,109.9l0.1-0.3c-0.3-0.3-0.7-0.3-1.4-0.3L234.3,109.9z"/>
					<polygon fill="#FFFFFF" points="211.7,109.6 212.1,109.6 211.4,108.6 					"/>
					<path fill="#FFFFFF" d="M192.8,111.4c0.8,0,1.7-0.2,2.5-0.2C193.6,111.4,192.6,110.2,192.8,111.4z"/>
				</g>
			</g>
		</g>
	</g>
</g>
</svg>
