<?xml version="1.0" encoding="utf-8"?>
<!-- Generator: Adobe Illustrator 18.1.1, SVG Export Plug-In . SVG Version: 6.00 Build 0)  -->
<svg version="1.1" id="Layer_1" xmlns="http://www.w3.org/2000/svg" xmlns:xlink="http://www.w3.org/1999/xlink" x="0px" y="0px"
	 viewBox="0 0 212 192" enable-background="new 0 0 212 192" xml:space="preserve">
<g>
	<text transform="matrix(1 0 0 1 11.752 117.7308)" fill="#FFFFFF" font-family="'Beauty'" font-size="138.4293">ZB</text>
	<g>
		<g>
			<g>
				<g>
					<g>
						<path fill="#FFFFFF" d="M212.5,187.2c0.3,0.1,0.3-0.7,0.4-0.9C212.4,186.4,212.5,187.4,212.5,187.2z"/>
						<polygon fill="#FFFFFF" points="207.1,188.2 207.3,187.9 206.4,188.6 						"/>
						<path fill="#FFFFFF" d="M202.3,187.4c0.2,1.5,1.8,0.1,2.5,0.7l0.1,0.3l0.6-1.1C204.5,187.4,203,187.9,202.3,187.4z"/>
						<path fill="#FFFFFF" d="M200.3,183.9c0.1,0.6-0.6,0.4,0.6,0.3c0-0.1-0.1-0.1-0.1-0.2C200.7,184,200.5,184,200.3,183.9z"/>
						<path fill="#FFFFFF" d="M200.8,184.1C201.3,184.1,200.5,183.5,200.8,184.1L200.8,184.1z"/>
						<path fill="#FFFFFF" d="M198.4,184l0.7-0.4c-0.1-0.3-0.7-0.5-0.4-0.7C198,183,198.1,183.4,198.4,184z"/>
						<path fill="#FFFFFF" d="M197.6,184.9l0.4-0.2C197.9,184.6,197.8,184.6,197.6,184.9z"/>
						<path fill="#FFFFFF" d="M198.8,184.4l-0.8,0.3c0.1,0.2,0,0.7,0.4-0.1C198.2,185.1,198.4,184.7,198.8,184.4z"/>
						<path fill="#FFFFFF" d="M199.1,184.7c0.3,0.4,0.8,0.6,0,1C200.5,185.8,200.4,184.7,199.1,184.7z"/>
						<path fill="#FFFFFF" d="M201.9,188.8l0.4,0.5l0.5-0.4C202.5,189.1,201.9,188.4,201.9,188.8z"/>
						<path fill="#FFFFFF" d="M194.4,182.6c-0.1,0.3,0.1,0.8,0.1,1.2l0.5-0.3C194.8,183.3,194.3,183,194.4,182.6z"/>
						<path fill="#FFFFFF" d="M194.4,183.8l-0.8,0.4C194.3,184.4,194.4,184.1,194.4,183.8z"/>
						<polygon fill="#FFFFFF" points="197.2,186.5 198.6,185.6 197,186.4 						"/>
						<polygon fill="#FFFFFF" points="191.6,182.1 192.1,181.5 191.2,182.4 						"/>
						<path fill="#FFFFFF" d="M189.7,181.9c0.4-0.5-0.3-1,0.1-1.3c-0.5,0-1,0.5-1.5,0.8C188.8,181.2,189.2,181.4,189.7,181.9z"/>
						<path fill="#FFFFFF" d="M187.5,182c0.2-0.1,0.5-0.3,0.8-0.5C188.1,181.5,187.8,181.7,187.5,182z"/>
						<path fill="#FFFFFF" d="M192.4,183.9c0-0.2-0.1-0.7-0.4-1l0.2,0.9C192.2,183.8,192.3,183.8,192.4,183.9z"/>
						<path fill="#FFFFFF" d="M192.1,183.8L192.1,183.8c-0.3-0.1-0.5-0.2-0.6-0.2C191.6,183.7,191.8,183.7,192.1,183.8z"/>
						<path fill="#FFFFFF" d="M192.5,183.9C192.5,183.9,192.4,183.9,192.5,183.9C192.4,183.9,192.4,184,192.5,183.9z"/>
						<path fill="#FFFFFF" d="M195.4,185.4c-0.5,0.4-1.5,0.8-0.7,1.6C195.1,186.5,194.7,186,195.4,185.4z"/>
						<path fill="#FFFFFF" d="M192.7,185l0.7,0.3c0-0.2-0.1-0.6,0.2-0.8L192.7,185z"/>
						<polygon fill="#FFFFFF" points="192.2,185.2 192.7,185 192.4,184.9 						"/>
						<path fill="#FFFFFF" d="M188.8,182.9c-0.4,0.3-0.8,0.3-1.2,0.3c0.4,0.2,0.9,0.4,1.3,0.5C189,183.4,189.2,183,188.8,182.9z"/>
						<path fill="#FFFFFF" d="M190.4,183.4C190.4,183.5,190.3,183.5,190.4,183.4C190.3,183.6,190.4,183.6,190.4,183.4z"/>
						<path fill="#FFFFFF" d="M183.4,182.6c0,0.1,0,0.1,0,0.2L183.4,182.6L183.4,182.6z"/>
						<path fill="#FFFFFF" d="M188.9,183.9c0.3,0.2,0.5,0,0.8-0.2c-0.3,0-0.5,0.1-0.8,0C188.8,183.8,188.8,183.9,188.9,183.9z"/>
						<path fill="#FFFFFF" d="M186.3,182.2c0.1,0.2,0.3,0.4,0.5,0.6C186.7,182.4,186.4,182,186.3,182.2z"/>
						<path fill="#FFFFFF" d="M190.2,183.2C190.2,183.2,190.3,183.2,190.2,183.2C190.2,183,190.2,183.1,190.2,183.2z"/>
						<path fill="#FFFFFF" d="M190.2,183.2c-0.2,0.1-0.4,0.3-0.5,0.4c0.2,0,0.4-0.1,0.6-0.2C190.3,183.4,190.2,183.3,190.2,183.2z"
							/>
						<path fill="#FFFFFF" d="M181.4,187.8c0.2-0.8,1.2-1.4,1.8-0.4c0.8-0.5,0.8-3.1,0.3-4.7c-0.1,0.3-0.1,0.7-1,1
							c0.2,0.5,1.6,1.3,0.8,1.9c-1.1,0.2-0.8-0.4-1.2-0.9c0.3,1-1.5,1.2-1.5,2.7l1-0.4C181.5,187.3,181.1,187.6,181.4,187.8z"/>
						<path fill="#FFFFFF" d="M184.9,183.1l0.3,0c-0.3-0.2-0.6-0.5-0.9-1.2c-0.6,0.3-0.7,0.6-0.8,0.8l1.6,0.4L184.9,183.1z"/>
						<path fill="#FFFFFF" d="M186.7,183.2c-0.4,0.8-1.2,1.1-0.9,2.1c0.9,0.1,0.8-0.6,1.4-0.9C185.7,184.4,187.7,184,186.7,183.2
							c0.3,0,0.6,0,0.8,0c-0.3-0.1-0.5-0.3-0.7-0.5c0,0,0,0,0,0.1l0,0l0,0c0,0.1,0.1,0.2,0,0.1c0,0,0,0,0,0
							C186.8,183,186.8,183.1,186.7,183.2c-0.4-0.2,0-0.2,0.1-0.3c0,0,0-0.1,0-0.1l0,0l-1.6,0.2C185.6,183.2,186,183.2,186.7,183.2z
							"/>
						<path fill="#FFFFFF" d="M193.6,188.7c0-0.1,0-0.1,0-0.2C193.4,188.6,193.4,188.6,193.6,188.7z"/>
						<path fill="#FFFFFF" d="M193,188.1c0.1-0.1,0.3-0.4,0.6-0.3c0.3,0.3-0.1,0.4-0.1,0.7c0.3-0.2,0.8-0.5,0.2-1l-0.1,0.1
							c-0.6-0.4-1.2-1.6-1-1.7C192.7,186.7,192.8,187.3,193,188.1z"/>
						<path fill="#FFFFFF" d="M189.8,185.9l-1.3,0.2l0.5,0.8l0-0.4C189.7,186.8,189.7,186.2,189.8,185.9z"/>
						<polygon fill="#FFFFFF" points="183.4,182.1 183.7,181.3 182.7,182.4 						"/>
						<polygon fill="#FFFFFF" points="181.7,182 181.9,181.2 181.4,181.6 						"/>
						<path fill="#FFFFFF" d="M88.4,183.5l-0.4,0.2C88.2,183.7,88.3,183.6,88.4,183.5z"/>
						<path fill="#FFFFFF" d="M91,183.6l0.1-0.4C91,183.4,90.9,183.5,91,183.6z"/>
						<path fill="#FFFFFF" d="M141.3,176.8c-0.5-0.8-1-2-1-1.1l0.1,0.9C140.8,176.5,141.1,176.6,141.3,176.8z"/>
						<path fill="#FFFFFF" d="M113.2,179.8c0,0.1,0.1,0.2,0.1,0.3c0.1-0.3,0.3-0.6,0.4-0.8C113.6,179.4,113.4,179.6,113.2,179.8z"/>
						<path fill="#FFFFFF" d="M112.6,183.3l-0.7-0.6C112.1,182.9,112.3,183.1,112.6,183.3z"/>
						<path fill="#FFFFFF" d="M73.8,184.6l-0.4,0.9C74.1,185.4,73.8,185,73.8,184.6z"/>
						<path fill="#FFFFFF" d="M164.9,179.9c-0.4-0.4-0.8-0.6-1.1-0.7C164.3,179.8,164.6,180.6,164.9,179.9z"/>
						<path fill="#FFFFFF" d="M89.5,174.3c-0.2,0.2-0.3,0.3-0.3,0.5C89.4,174.7,89.6,174.5,89.5,174.3z"/>
						<path fill="#FFFFFF" d="M162.4,179c0.1,0.1,0.1,0.2,0.2,0.2c0.4-0.1,0.7-0.2,1.1-0.1C163.4,178.8,163,178.5,162.4,179z"/>
						<path fill="#FFFFFF" d="M21.2,188.3c0,0-0.1,0-0.1-0.1C21,188.3,21.1,188.3,21.2,188.3z"/>
						<path fill="#FFFFFF" d="M4.5,182c0.1-0.1,0.4-0.1,0.6-0.2C5,181.8,4.8,181.8,4.5,182z"/>
						<path fill="#FFFFFF" d="M175.2,180.6C175.5,180.6,175.2,180.5,175.2,180.6L175.2,180.6z"/>
						<path fill="#FFFFFF" d="M176.4,184.3c-0.1,0.1-0.2,0.2-0.2,0.4C176.2,184.5,176.3,184.3,176.4,184.3z"/>
						<path fill="#FFFFFF" d="M158.3,183.9L158.3,183.9C158.3,184.1,158.3,184.1,158.3,183.9z"/>
						<path fill="#FFFFFF" d="M175.6,181.1c-0.1-0.1-0.3-0.2-0.4-0.3C175.3,180.8,175.4,180.9,175.6,181.1z"/>
						<path fill="#FFFFFF" d="M175.6,180.7c0.1,0.1,0.2,0.1,0.3,0.1C176,180.7,176,180.6,175.6,180.7z"/>
						<path fill="#FFFFFF" d="M174.7,180.6c0.2,0,0.4,0.1,0.5,0.2c-0.1-0.1-0.1-0.1-0.1-0.1C175.1,180.6,174.9,180.6,174.7,180.6z"
							/>
						<path fill="#FFFFFF" d="M49.1,182.8C49.1,182.8,49.1,182.8,49.1,182.8C48.7,183.1,48.9,183.1,49.1,182.8z"/>
						<path fill="#FFFFFF" d="M131.4,184.9C131.4,184.9,131.4,184.9,131.4,184.9C131.4,184.9,131.4,184.9,131.4,184.9L131.4,184.9z"
							/>
						<path fill="#FFFFFF" d="M130.1,185.5c0.6-1,0.9-0.9,1.3-0.6l-0.2-2.5L130.1,185.5z"/>
						<path fill="#FFFFFF" d="M82,183.7l0.9,0.8c-1,1.3-1.8,0.8-1,1.9c0.1-2.7,3.4-0.3,3.5-3l0.6,0.6c-0.2,0-0.2,0.1-0.4,0.1
							c1.1,1.3,0.8-2,2.3-1.6c0.5,0.2,0.8,0.6,0.5,0.9l1.1-0.7c0.3,0.1,0.2,0.5-0.1,0.5c0,0,0.4-0.1,0.9-0.1c0.4,0,0.9-0.1,0.9-0.1
							l0,0.1c0.2-0.4,0.8-1.1,1.1-1.3c0.4,0.4-0.2,0.3-0.1,0.6l1-0.6c0.4,0.7-0.4,1.4-1.1,1.3c0.8,2.7,0.8-0.7,2.7,1l-0.9,0.3
							c0.5,1.6,1.2,1,2.2,2c-0.2-0.5-2-2.5-0.9-3.1c0.3,0.2,0.7,0.3,1.2-0.2c0,1,0.5,0.7,1.2,0.7l-0.1,1.3c0.7-0.4,0.7-1,1.1-1.6
							c0.8,0.1,1,1.1,1.1,2c1.3,0.2-0.9-1.6,0.7-1.8c1.1,0.5,1.8,0,3.2-0.7c0.7,0.5-0.2,0.8,0.1,1.2l0.7-1c0.2,0,0.1,0.3,0.1,0.5
							c0.6-0.4,0.1-1.3,1-1.6c0.3-1.4,1.7,2.1,2.9,0.6c0.3,0.4-0.2,0.8-0.1,1.3c1.6-1,1.3-0.7,2.7-2l1,0.9c-0.7-1,0.3-2.1,1.3-3
							c-0.3-0.5-0.5-0.9-0.6-1.1l1.4-0.6c0.2,0.2,0,0.6-0.3,1.2c0.1-0.1,0.2-0.2,0.3-0.3c0.5,0.5,0.2,1.2-0.2,1.9
							c-0.2-0.3-0.3-0.5-0.5-0.8c-0.4,0.8-0.8,1.6-0.7,2.4c0.1-0.1,0.3-0.3,0.5-0.3c-0.1,0.2-0.2,0.4-0.1,0.5c0,0.1,0.2-0.1,0.4-0.5
							l0.2,1.4l0.1-0.6c0,0,0.4,0.2,0.9,0.5c0.4,0.3,0.9,0.5,0.9,0.5c1.4-1.3,2.7-3.4,4.8-3.8c-0.6,1-0.2,1.7-0.3,2.9
							c-0.5-1.3-1.6,0.4-2.7,0.1c0.6,0.2,0.4,0.8,0.2,1l2-1.1c-0.1,1,0.4,0.8,0.8,1.2c-0.2-2,1.5-1.2,2.3-1.8c0,0.7-0.2,1.3-1.2,1.1
							c0.9,1.6,1.5-2.2,2.5-0.9c-0.2,0-0.4-0.1-0.5,0.2c0.6-0.6,1.9,0,1.5,0.6l-0.2,0c1.5,0.3,4.7,0.4,5.1-1.3c0,0.2-0.4,2-0.5,2.4
							l3.3-5.4c-0.4,1.4,0.2,5-1.1,5.7c0.3,0.2,0.8,0.5,1.6,0.1c-0.2-0.2-0.4-2.2-0.1-2.3c0.8,1.7,0.6,0.9,1.6,2.4
							c-0.3-0.3,0.3-2.6,0.9-2.5c-0.1,0.3-0.2,2.3-0.4,2.5l1.7-2.1c-0.4,0.4-0.2,1.9,0,2.6c-0.1-0.5,1.3,0.2,1.7,0l-0.6-0.6
							c1.6,0.5,2-3,3.6-2.7c-0.2,0.4-0.8,2.8,0,3.2c0.5-1.1,2.3-5.3,3.8-6l0.2,0.7l1.2-0.6c-0.9,1.6-3.2,5-4.5,6.3
							c0.6,0.6,0.1,0.8,1,0.8c0.3,0.7-0.6,0.9-0.9,0.9l2.1,0.6c0-1.3,1.8-1.1,1.8-2.3l-2.5,1.1c0-1.3,1.8-3.6,3.3-3.2
							c0.3,0.6-0.6,2.3-0.6,2.8c0.2-0.4,1.6-0.7,1.7-0.4l-0.7,0.6c0.8,0.6,1.6-1.6,2.5-0.2c0.3,0.1,0.9,1.8,1,1.1
							c-0.4-1.6,0-6.3,0.6-7.4c0.1,0.1,1.7,1.7,2,2.5c0.4,1.3-1.2,2.7-0.8,3.8c0.1-0.4,0.4-0.8,0.6-0.9c0.3,0.4-0.3,1.1,0.5,1
							c0.3-1.3,1.6,0.3,0.5-1.1c0.8-0.3,0.8,0.4,1.7,0.4c-0.2-0.9,1.2-2.9,2.1-3.2c-0.1,0.3,0,0.8,0.1,1c1.6,0.3,2.4,1.1,3.9,1.3
							c0.1,0.3,0.8,0.8,0.4,1.4c0.2-0.2,0.5-0.6,1-0.6c0.7,1.3-1.1,0-0.6,1.5c0.2-0.8,1.3-0.9,2.1-1.3c0-1.2-1.5-0.4-2.2,0
							c0.2-1.7,1.6-3.3,3.3-3.8c1.3-0.2,0.4,1.2,0.7,0.9c2.3,0.6,2.4-2.6,4.2-1.2c0.6,1.2-0.3,2.1-0.2,2.9c-1.1,0.3-1.5-0.9-2.2-0.9
							l0.8,0.6c-0.4,0.3-1.1,0.5-1.4,0.1c0.5,1.1,4,0.7,5.7,1.9c0.4-0.3,1-0.6,0.8-1.1l-0.6,0.1c-0.4-0.9,1.3-1,0.6-1.5
							c0.9-0.5,1.9-1.3,2.9-0.6l0,1.2c0-0.4-0.6-0.8-1-0.5c0.5-0.5,1.4,1.9,2.2,0.4l-0.6-1c0.9-0.5,2-1.6,2.9-1.1
							c-0.3-1.3-0.2,0.1-0.7-1.4c0.3,1.8-2.5-0.5-1.8,1.5c-0.5-1.7-1.1-0.9-1.8-2.4c0,0.4,0.2,0.8-0.6,0.5c-0.1,0.1-0.2,0.2-0.2,0.3
							c0,0,0,0-0.1,0l0,0.1c0,0.1,0,0.1,0,0c0.2,0.2,0.3,0.4,0.3,0.7c-0.5,0.9-1.8,0.6-2.3,1c-0.5-0.3,0.3-0.4,0.1-0.9l-0.8,0.6
							c0.1-0.9-1.1-1.7,0.1-2l-1-0.2c-0.5-0.6-1.3-0.9-1.9-0.6c-0.5-0.3-1.4,0.8-0.8,0.2l-1.7,0.3l0-0.2c-1.6-0.3-3.5,1-5.1-0.8
							c-0.6,0.2-1.2,0.4-2,0l-0.1-0.8c-0.7,0.2-2-1.1-2.4-0.3c-0.5-2.2-3.3-0.8-4.5-1.4l-0.2,1c-0.8-0.2-1.7,0-2.7,0.3l0,0.9
							c-1,0.6-2.2-0.9-3.6-1c0.1-0.3,0.5-0.2,0.7,0c-1.5-2.2-3.7,1.1-5.1-0.6c-0.4,0.3-0.7,0.2-0.9-0.1c0,0,0.1,0,0.1,0
							c0,0-0.1,0-0.2,0c-0.2-0.2-0.3-0.4-0.5-0.5c0.1,0.2,0.3,0.4,0.4,0.5c-0.3,0-0.8,0.1-1.2,0.2l-0.1-1c0,0-0.1,0-0.1,0
							c-0.4-0.4-0.4,0.4-0.2,1.2c-0.2,0.1-0.5,0.3-0.6,0.5c-0.2-1.6-1.2,0.4-1.5-1.3c-0.4,0.8-2.3,0.4-2.6,2.1
							c0-0.2-0.1-0.3,0.1-0.3c-0.5-0.2-0.9-0.5-1.4,0l-0.1-1.2l-1.2,1.5c-0.6-0.8-0.8-1.3-0.1-2.1c-1.7,1.3-1.3,0.4-2.7,1.7l0.1-0.8
							c-0.5,0-1.3,1-1.5,0.3c-0.9-1.6-5.2-0.6-7.8-2.2c0.4,2.4-1.2-1.1-1.4,0.7c-0.1-0.6-0.5-0.9,0-1.3c-1.4,0.4-2-1-3.1,0.4
							c-0.1-0.6,0.3-0.8,0.2-1.1c-0.1,0.1-0.5,0.4-0.6,0.1c-0.1-0.3,0.2-0.4,0.5-0.7c-1.4,0-1.7,1.7-1.9,3.3c-0.7-0.8-1-0.7-1.6,0.3
							c-0.2-0.5-0.6-1.1,0.3-1.2c-0.5-0.1-3-0.9-3.1,0.4c-0.1-0.3-0.7-0.1-0.8,0c-1.1-0.1-1.2-0.2-2.3-0.2l0.3,0.2
							c-0.5,1.5-0.9,0.3-1.8,0.4l0-0.2c-2-1.2-0.9,0.5-2.8-0.9l0.1,1c-0.3,2.1-1.7-1.3-2.9-0.5l0.4,0.6c-0.6,0.7-1.7-2.8-2.3-3.1
							c-0.1-0.2,0.2-0.3,0.4-0.4c-1.6-1.3-0.2,1.3-1.5,1.5c-0.2-0.7,0.3-1.7-0.5-1.9c-0.4-0.6-2.5,2.1-3.6,0.8
							c0.2,0.5,0.5,1.1-0.1,1.4c-0.9,0.2-2.4-2-3.2-0.4c-0.1-0.1-0.2-0.3-0.2-0.4c-0.7,0.4-2.2,0.7-2.6,1.6
							c-0.6-3.3-4.2,1.6-4.2-1.4l-2.1,0.2l0.1-0.3c-1.3-0.2-1.8,0.5-2.2,1.3c-0.3-0.2-0.1-0.5-0.1-0.7c-1.9-0.6-2.1-0.4-3.7,1.1
							l-0.2-1c-0.4,0.6-2.8-1.5-4.7-0.3c0-0.1,0-0.3,0.2-0.4c-2.1,1.2-5.2-2.5-5.9,1.1l-1.4,1c1.8,0.2-0.2,1.6,0.6,2.1
							c-0.7,0.2-1.9-1-1-1.2l0.1,0.2c0.2-1.9-2.3-0.6-2.3-1.8c-3.6,0.2-7.1-0.5-10.5-0.3l0.5,1.4l-1.2,0c-0.3-0.3-0.5-1.1,0.3-1.1
							c-0.5-0.8-1.3,0.8-1.3,1.1c-1.7-0.5,0.5-1.8,0-1.7l-0.7,0.2l0.2,0.2c-0.5,0.6-0.5,1.3-1.5,1.3c-0.7-0.2-0.4-0.9-0.7-0.9
							c0-0.1-0.1-0.1-0.4,0l-1.5,0l0.7,1.1c-0.6,0.6-1.4,0.1-0.6,1.3c-1.2-1.9-5.6-0.2-6.2-0.7c-0.8,0.9-1.7,1-2.8,1.1
							c0.3,0.2,0.6,1.5-0.4,1.4c0-2.7-1.9-1-2.9-2.8c0.8,1.2-2.7,0.6-1.4,2.3c-0.8-0.1-0.2-1-0.9-1.5c-1.8,1.3-4.3-0.1-6.6,0.5
							c0,0.4,0.5,0.8,0,1.4l-1.5-1.6c-0.4,0.2-0.1,2.1-1.2,1c0.2,0.3,0.4,0.7,0.1,0.8c-4.8-1-9.2,2.8-14.3,0.3
							c0.7,0.6,0.3,0.7-0.1,0.8c0.3,0.1,0.1,0.9,0.3,1.3l-2.1-1c-0.1,1.4-2.1,0.4-2.1,1.7l0.6-0.3c-0.6,1.6,1.7,3.1,1.9,5
							c0.6-1.8,2.8,2.1,3.9-0.5c0.4,0.3-0.2,0.7,0.1,1.1c0.2-0.9,0.7-1.1,1.6-0.9l-0.1,0.2c2.4-0.6,3.5,0.1,6.2,0.2l-0.3-0.9
							c0.6,0,0.8,0.3,1.1,0.5c0.4-1.5-1.6,0.2-1.3-1.5c1,1.8,4.1-0.6,4.9,1.5c0.9-0.1-0.4-1.1,0.5-1.2l0.3,0.6l0.1-0.8
							c0.6,0,1,0.7,1.1,1.2c-0.1,0-0.4,0.2-0.5,0.3c0.8,0.6,2.1-0.5,2.4-0.3l-0.9-0.2c2.3-0.9,5.4-0.5,7.6-2l-0.2-0.4
							c1.7-1,1.5,0.3,3.4-0.3l-0.1,0.1c0.3-0.5,0.8-0.8,1.4-0.8c-0.4,0.6,1,0.9,0.5,1.6c1.8-1.1,0.9-0.8,2-2.6l0.4,0.7
							c0.4-0.7,0.4-1.1,1.3-1.4c-0.7,0.7,0.7,1.1-0.1,2c2.2,1.4,2.9-1.9,4.1,0.3c0.7-2.1-1.9-1-1.4-1.5c-0.5-0.6,0.6-1.6,1.3-1.5
							c0.7,0,1.4,2.5,3,2.3c-0.2,0-0.2,0.2-0.3,0.2c0.7,0.5,1.1-0.8,2,0c0.3-1.3,1,0,1-1.6l-1.5,0.5c0.8-0.5,1.5-2.4,3-1.6
							c-0.1,0.3-0.5,0.8-0.7,1c0.5,0.4,0.8-0.4,1.2,0.1c0,1.6-1.8,0.5-2.6,1.8c0.5,0.6,1.6-1.3,1.3,0.5c0.5-2.2,1.6,0.2,2.6-1.6l0,1
							c0.2-0.2,0.5-0.6,0.8-0.6l-0.5,1.3c0.8-1.1,1.8,0.8,2.6,0.2c-1.8,0.2-0.5-1.1-1.3-1.7c2.2-1.4,1.5,2.4,3.9,1.7
							c-0.3,0.2-1.3-0.5-0.8-1c0.5,0.2,1.1,0.5,1.5,1c1.6-0.3-0.3-1,0.4-1.6c0.6,1.1,0.8-0.5,1.5-0.9l0.1,1c1.9,0.5,0.4-2,2.1-1.4
							l-0.7,1.4l0.9-0.4l-0.1,1.1c0.9-0.9,1.2-0.7,2.2-0.4c-0.3-0.7,0-1.8,0.9-1.8c0.6,0.5-0.3,0.9,0.9,0.7
							c-0.2,0.6-0.5,1.4-1.1,0.5c0,0.3-0.2,0.6-0.3,0.9c0.6,0.6,1.6,0.1,2,0c-0.2,0-0.4-0.1-0.5-0.2l1.7-1.4
							c0.3,0.3,0.1,0.7-0.1,0.9c0.3-0.1,0.6-0.6,1.1-0.7c-0.1,0.8,0,1.6-0.8,2l1.6-0.9c0.1,0.3,0.9,0.9,0.7,1.2
							c0.9,0.4,2.2-1.6,3.4-1c0.1-0.2,0.2-0.3,0.4-0.4c1.1,0.1,2.2,1.1,3.5,0l0.8,1.4c1-0.3-1.1-1.7,0.7-2.3
							c1.2-0.4,0.5,1.2,0.9,1.6c0.6-0.7,1.7-2.2,2.8-1C82.6,183.9,82.3,183.6,82,183.7z M95,183.2c-0.3,0.2-0.8,0.8-0.9,0.2
							C94.4,182.4,94.6,182.9,95,183.2z M115,181.7c-0.2,0.3-0.5,0.1-0.8-0.2C114.4,181.4,114.7,181.4,115,181.7z M171.2,180.8
							C171.2,180.9,171.2,180.9,171.2,180.8C170.7,180.4,170.9,180.6,171.2,180.8z M172.4,181.4c0.1-0.1,0.1-0.3,0.1-0.4
							c-0.1,0.2-0.4,0.2-0.7,0.1C171.9,181.4,172,181.6,172.4,181.4z M44.8,176.7l0.3,0.2C44.6,177.2,44.7,177,44.8,176.7z"/>
						<path fill="#FFFFFF" d="M112.7,182.9c-0.1-0.2-0.1-0.3-0.1-0.5C112.5,182.5,112.5,182.7,112.7,182.9z"/>
						<path fill="#FFFFFF" d="M73.9,184.4C73.9,184.4,73.9,184.4,73.9,184.4c-0.1,0-0.1,0.1-0.1,0.2L73.9,184.4z"/>
						<path fill="#FFFFFF" d="M153.1,187.1c-0.2-0.2-0.3-0.4-0.4-0.5C152.7,186.8,152.8,187,153.1,187.1z"/>
						<path fill="#FFFFFF" d="M178.8,180.7l-0.8,0.1c0.4,0,0.5,0.2,0.6,0.4C178.7,181.1,178.6,180.7,178.8,180.7z"/>
						<path fill="#FFFFFF" d="M184.4,187.6c0.1-0.1,0.2,0,0.4-0.1l0-0.4C184.4,187.1,184,187.4,184.4,187.6z"/>
						<path fill="#FFFFFF" d="M179.1,184c-0.1,0.8,0.4,0.6,1,0.5c0,0-0.1,0-0.1,0C180.3,183.4,179.7,183.7,179.1,184z"/>
						<path fill="#FFFFFF" d="M180.2,184.5c0.2,0,0.3,0,0.5,0.1C180.8,184.2,180.5,184.5,180.2,184.5z"/>
						<path fill="#FFFFFF" d="M173.9,181.1c0.2,0.2,0.3-1,0.4-0.7C174.8,179.5,172.5,181.4,173.9,181.1z"/>
						<polygon fill="#FFFFFF" points="179.1,186.7 179,185.7 178.6,186.5 						"/>
						<path fill="#FFFFFF" d="M175,185.4l0.8,0.4c0-0.2,0.1-0.2,0.3-0.3C175.6,185.3,175.1,185.1,175,185.4z"/>
						<path fill="#FFFFFF" d="M176.1,185.5c0.3,0.1,0.5,0.1,0.7-0.1C176.7,185.4,176.3,185.4,176.1,185.5z"/>
						<polygon fill="#FFFFFF" points="177.9,186.8 177.7,186.6 177.1,186.4 						"/>
						<path fill="#FFFFFF" d="M166,183.9l-1,0.2c-0.1,0.3,0.1,0.6,0.4,0.5C165.8,184.3,166.1,184.3,166,183.9z"/>
						<path fill="#FFFFFF" d="M168.4,187c-0.2-0.2-0.2-0.5-0.3-0.8l-0.2,1.2L168.4,187z"/>
						<path fill="#FFFFFF" d="M165.7,186.9c-0.1,0.3-1.5,0.8-0.3,0.9C165.6,187.5,166.5,187.3,165.7,186.9z"/>
						<polygon fill="#FFFFFF" points="152.1,183.6 152.4,183.6 152.6,181.6 						"/>
						<path fill="#FFFFFF" d="M139.4,187.1c1,0.6,0.4-1.2,1.3-0.5c0.3-0.5-0.7-0.6-0.4-1C139.6,186,139.3,185.7,139.4,187.1z"/>
						<path fill="#FFFFFF" d="M140.3,185.6c0.1-0.1,0.2-0.2,0.4-0.3C140.4,185.4,140.3,185.5,140.3,185.6z"/>
						<polygon fill="#FFFFFF" points="1.7,181.3 1,181 1.5,181.6 						"/>
						<path fill="#FFFFFF" d="M0.7,183l-0.4-1.3c0,0-0.2,1.2-0.2,1.2C0.2,182.9,0.5,182.8,0.7,183z"/>
						<path fill="#FFFFFF" d="M96.9,185.9l0.1-0.3c-0.1-0.3-0.3-0.4-0.6-0.4L96.9,185.9z"/>
						<polygon fill="#FFFFFF" points="87.5,184.8 87.6,184.8 87.3,183.6 						"/>
						<path fill="#FFFFFF" d="M79.6,186.3c0.3,0,0.7-0.2,1-0.2C79.9,186.3,79.5,184.8,79.6,186.3z"/>
					</g>
				</g>
			</g>
		</g>
	</g>
</g>
</svg>
