<?xml version="1.0" encoding="utf-8"?>
<!-- Generator: Adobe Illustrator 18.1.1, SVG Export Plug-In . SVG Version: 6.00 Build 0)  -->
<svg version="1.1" id="Layer_1" xmlns="http://www.w3.org/2000/svg" xmlns:xlink="http://www.w3.org/1999/xlink" x="0px" y="0px"
	 viewBox="0 0 143 147" enable-background="new 0 0 143 147" xml:space="preserve">
<g>
	<path stroke="#FFFFFF" stroke-width="9" stroke-miterlimit="10" d="M136.5,109.4l-63.1,32.4c-0.6,0.3-1.3,0.3-1.8,0L8,109.9
		c-1.5-0.8-1.5-2.9,0-3.6l63.6-32.2c0.6-0.3,1.3-0.3,1.8,0l63.1,31.7C138,106.5,138,108.7,136.5,109.4z"/>
	<path stroke="#FFFFFF" stroke-width="9" stroke-miterlimit="10" d="M136.5,75.3l-63.1,32.4c-0.6,0.3-1.3,0.3-1.8,0L8,75.9
		c-1.5-0.8-1.5-2.9,0-3.6l63.6-32.2c0.6-0.3,1.3-0.3,1.8,0l63.1,31.7C138,72.5,138,74.6,136.5,75.3z"/>
	<path stroke="#FFFFFF" stroke-width="9" stroke-miterlimit="10" d="M136.5,40.3L73.4,72.7c-0.6,0.3-1.3,0.3-1.8,0L8,40.8
		c-1.5-0.8-1.5-2.9,0-3.6L71.5,5c0.6-0.3,1.3-0.3,1.8,0l63.1,31.7C138,37.4,138,39.5,136.5,40.3z"/>
</g>
</svg>
