<?xml version="1.0" encoding="utf-8"?>
<!-- Generator: Adobe Illustrator 18.1.1, SVG Export Plug-In . SVG Version: 6.00 Build 0)  -->
<svg version="1.1" id="Layer_1" xmlns="http://www.w3.org/2000/svg" xmlns:xlink="http://www.w3.org/1999/xlink" x="0px" y="0px"
	 viewBox="0 0 332 21" enable-background="new 0 0 332 21" xml:space="preserve">
<g>
	<g>
		<g>
			<g>
				<g>
					<path d="M332.1,13.5c0.5,0.1,0.4-0.7,0.5-0.9C331.7,12.7,332.1,13.7,332.1,13.5z"/>
					<polygon points="323.9,14.6 324,14.3 322.8,15 					"/>
					<path d="M316.3,13.9c0.6,1.5,2.7,0,4,0.6l0.2,0.3l0.7-1.1C319.6,13.9,317.5,14.4,316.3,13.9z"/>
					<path d="M312.6,10.5c0.2,0.6-0.9,0.4,0.9,0.3c-0.1-0.1-0.1-0.1-0.2-0.2C313.2,10.6,313,10.6,312.6,10.5z"/>
					<path d="M313.4,10.6C314.2,10.6,312.9,10.1,313.4,10.6L313.4,10.6z"/>
					<path d="M309.7,10.6l1.1-0.4c-0.2-0.3-1.1-0.5-0.7-0.7C309,9.6,309.1,10,309.7,10.6z"/>
					<path d="M308.6,11.5l0.6-0.2C309.1,11.2,309,11.2,308.6,11.5z"/>
					<path d="M310.4,11l-1.2,0.3c0.1,0.2,0.1,0.7,0.5-0.1C309.6,11.7,309.9,11.3,310.4,11z"/>
					<path d="M311,11.3c0.6,0.4,1.3,0.6,0.2,1C313.2,12.3,313,11.3,311,11.3z"/>
					<path d="M315.8,15.4l0.7,0.5l0.7-0.4C316.9,15.6,315.8,14.9,315.8,15.4z"/>
					<path d="M303.3,9.2c-0.1,0.3,0.3,0.8,0.3,1.2l0.8-0.3C304,10,303.3,9.7,303.3,9.2z"/>
					<path d="M303.6,10.5l-1.2,0.4C303.4,11,303.6,10.8,303.6,10.5z"/>
					<polygon points="308.3,13.1 310.3,12.2 307.9,13.1 					"/>
					<polygon points="298.9,8.8 299.6,8.2 298.4,9.1 					"/>
					<path d="M296,8.7c0.5-0.5-0.6-1,0-1.4c-0.8,0-1.5,0.5-2.2,0.9C294.4,8,295.1,8.1,296,8.7z"/>
					<path d="M292.7,8.7c0.3-0.1,0.7-0.3,1.1-0.6C293.4,8.3,293,8.4,292.7,8.7z"/>
					<path d="M300.5,10.6c-0.1-0.2-0.2-0.7-0.8-0.9l0.4,0.9C300.1,10.5,300.3,10.5,300.5,10.6z"/>
					<path d="M300,10.5L300,10.5c-0.5-0.1-0.8-0.1-1-0.2C299.2,10.4,299.5,10.4,300,10.5z"/>
					<path d="M300.6,10.6c0,0-0.1,0-0.1,0C300.5,10.6,300.5,10.7,300.6,10.6z"/>
					<path d="M305.3,12c-0.7,0.4-2.2,0.8-0.9,1.6C305,13.1,304.3,12.7,305.3,12z"/>
					<path d="M301,11.7l1.2,0.3c0-0.2-0.2-0.6,0.2-0.8L301,11.7z"/>
					<polygon points="300.4,11.9 301,11.7 300.6,11.6 					"/>
					<path d="M294.7,9.7c-0.6,0.3-1.1,0.3-1.8,0.3c0.7,0.2,1.4,0.4,2.1,0.4C295.1,10.2,295.4,9.8,294.7,9.7z"/>
					<path d="M297.3,10.2c0,0-0.1,0-0.1,0C297.2,10.3,297.3,10.3,297.3,10.2z"/>
					<path d="M286.5,9.5l0.1,0.2c0,0,0-0.1,0-0.1L286.5,9.5z"/>
					<path d="M295.1,10.6c0.5,0.2,0.8,0,1.2-0.2c-0.4,0.1-0.8,0.1-1.3,0C294.9,10.6,294.9,10.7,295.1,10.6z"/>
					<path d="M290.8,9c0.3,0.2,0.6,0.4,0.9,0.5C291.5,9.2,291,8.8,290.8,9z"/>
					<path d="M297,10C297,10,297.1,9.9,297,10C296.9,9.7,296.9,9.8,297,10z"/>
					<path d="M297,10c-0.3,0.1-0.5,0.3-0.7,0.5c0.3,0,0.6-0.1,0.9-0.2C297.1,10.2,297,10.1,297,10z"/>
					<path d="M284,14.8c0.2-0.8,1.6-1.4,2.7-0.4c1.2-0.5,0.7-3.2-0.2-4.7c-0.1,0.3-0.1,0.7-1.3,1c0.4,0.5,2.6,1.2,1.5,1.9
						c-1.6,0.3-1.3-0.4-2-0.9c0.6,1-2.2,1.3-1.9,2.7l1.4-0.4C284.2,14.2,283.7,14.5,284,14.8z"/>
					<path d="M288.8,9.9l0.5-0.1c-0.6-0.2-0.9-0.5-1.6-1.2c-0.9,0.3-1.1,0.6-1.1,0.8l2.4,0.3L288.8,9.9z"/>
					<path d="M291.6,10c-0.5,0.8-1.7,1.1-1,2.1c1.5,0.1,1.1-0.6,2-0.9C290.2,11.2,293.3,10.8,291.6,10c0.5,0,0.9,0,1.3,0
						c-0.4-0.1-0.8-0.3-1.2-0.5c0,0,0,0,0,0.1l0,0l0,0c0.1,0.1,0.1,0.2,0,0.1c0,0,0,0-0.1,0C291.7,9.8,291.6,9.9,291.6,10
						c-0.7-0.2-0.1-0.2,0.1-0.3c0,0,0-0.1,0-0.1c0,0,0,0,0,0l-2.4,0.3C289.8,10,290.5,10,291.6,10z"/>
					<path d="M303,15.4c-0.1-0.1-0.1-0.1-0.1-0.2C302.8,15.3,302.8,15.4,303,15.4z"/>
					<path d="M302.1,14.8c0.2-0.1,0.4-0.4,0.9-0.3c0.5,0.3,0,0.4,0,0.7c0.4-0.2,1.2-0.5,0.2-1l-0.2,0.1c-0.9-0.4-2-1.6-1.9-1.7
						C301.4,13.4,301.6,14,302.1,14.8z"/>
					<path d="M296.8,12.6l-2,0.3l0.9,0.8l0-0.5C296.8,13.5,296.6,13,296.8,12.6z"/>
					<polygon points="286.3,9 286.6,8.1 285.4,9.3 					"/>
					<polygon points="283.7,8.9 283.9,8.1 283.1,8.5 					"/>
					<path d="M138.8,11.3l-0.6,0.2C138.5,11.4,138.7,11.4,138.8,11.3z"/>
					<path d="M143,11.4l0.1-0.4C142.9,11.2,142.8,11.4,143,11.4z"/>
					<path d="M220.8,4.4c-0.8-0.8-1.7-2-1.6-1.1l0.2,0.9C219.9,4,220.4,4.1,220.8,4.4z"/>
					<path d="M177.4,7.5c0.1,0.1,0.2,0.2,0.2,0.3c0.2-0.3,0.4-0.6,0.6-0.8C178,7.1,177.7,7.3,177.4,7.5z"/>
					<path d="M176.7,11.1l-1.1-0.6C175.8,10.7,176.2,10.9,176.7,11.1z"/>
					<path d="M116,12.3l-0.7,0.9C116.4,13.2,115.9,12.7,116,12.3z"/>
					<path d="M257.4,7.1c-0.7-0.4-1.3-0.6-1.8-0.7C256.5,7,257.2,7.8,257.4,7.1z"/>
					<path d="M140.5,2.1c-0.4,0.2-0.5,0.3-0.5,0.5C140.4,2.5,140.6,2.3,140.5,2.1z"/>
					<path d="M253.6,6.3c0.1,0.1,0.2,0.1,0.4,0.2c0.5-0.1,1.1-0.2,1.7-0.1C255.1,6,254.3,5.7,253.6,6.3z"/>
					<path d="M33.5,16.3c-0.1,0-0.1,0-0.2-0.1C33.3,16.4,33.4,16.4,33.5,16.3z"/>
					<path d="M8.4,10.7c0.2-0.1,0.6-0.1,1-0.2C9.2,10.5,8.9,10.5,8.4,10.7z"/>
					<path d="M273.4,7.6C274,7.6,273.5,7.5,273.4,7.6L273.4,7.6z"/>
					<path d="M275.8,11.3c-0.1,0.1-0.2,0.2-0.3,0.4C275.6,11.5,275.7,11.3,275.8,11.3z"/>
					<path d="M247.8,11.2C247.8,11.2,247.7,11.2,247.8,11.2C247.9,11.4,247.8,11.4,247.8,11.2z"/>
					<path d="M274.2,8.1c-0.2-0.1-0.4-0.2-0.7-0.3C273.6,7.9,273.9,8,274.2,8.1z"/>
					<path d="M274.1,7.7c0.2,0,0.3,0.1,0.5,0.1C274.7,7.7,274.6,7.6,274.1,7.7z"/>
					<path d="M272.7,7.6c0.3,0,0.6,0.1,0.9,0.2c-0.1-0.1-0.1-0.1-0.1-0.1C273.3,7.6,273,7.6,272.7,7.6z"/>
					<path d="M77.5,10.5c0,0-0.1,0-0.1-0.1C76.8,10.8,77.1,10.8,77.5,10.5z"/>
					<path d="M206.1,12.6C206.2,12.6,206.2,12.6,206.1,12.6C206.2,12.5,206.1,12.5,206.1,12.6L206.1,12.6z"/>
					<path d="M204.2,13.1c0.9-1,1.3-0.9,2-0.6l-0.5-2.5L204.2,13.1z"/>
					<path d="M128.8,11.5l1.4,0.8c-1.6,1.3-2.8,0.8-1.6,1.9c0.2-2.7,5.3-0.3,5.5-3l0.9,0.6c-0.3,0-0.3,0.1-0.6,0.1
						c1.7,1.3,1.3-2,3.6-1.6c0.8,0.2,1.3,0.6,0.8,0.9l1.8-0.6c0.5,0.1,0.4,0.5-0.1,0.5l2.7-0.2l0,0.1c0.4-0.4,1.3-1.1,1.7-1.3
						c0.7,0.4-0.3,0.3-0.2,0.6l1.5-0.6c0.6,0.7-0.6,1.4-1.7,1.3c1.4,2.7,1.2-0.7,4.2,1l-1.4,0.3c0.9,1.6,2,1,3.5,2
						c-0.4-0.5-3.1-2.5-1.5-3.1c0.4,0.2,1,0.3,1.9-0.2c0,1,0.8,0.7,1.9,0.7l-0.1,1.3c1.1-0.4,1.1-1,1.8-1.6c1.3,0.1,1.5,1.1,1.8,2
						c2,0.2-1.4-1.6,1-1.8c1.7,0.5,2.9,0,4.9-0.7c1.2,0.5-0.2,0.8,0.2,1.2l1.1-1c0.3,0,0.2,0.3,0.1,0.5c0.9-0.4,0.1-1.3,1.5-1.6
						c0.4-1.4,2.8,2.1,4.6,0.6c0.4,0.4-0.2,0.8-0.1,1.3c2.4-1,2.1-0.7,4-2.1l1.6,0.9c-1.2-1,0.4-2.1,1.8-3c-0.4-0.5-0.8-0.9-1-1.1
						l2.2-0.6c0.3,0.2,0,0.7-0.4,1.2c0.2-0.1,0.3-0.2,0.4-0.3c0.8,0.5,0.3,1.2-0.2,1.9c-0.3-0.3-0.5-0.5-0.8-0.8
						c-0.6,0.8-1.1,1.6-1,2.4c0.1-0.1,0.4-0.3,0.7-0.3c-0.1,0.2-0.2,0.4-0.2,0.5c0.1,0.1,0.3-0.1,0.7-0.5l0.4,1.4l0.1-0.6l2.8,1
						c2.1-1.4,3.9-3.4,7.2-3.8c-0.8,1-0.2,1.7-0.3,2.9c-0.8-1.3-2.5,0.5-4.2,0.1c0.9,0.2,0.7,0.8,0.4,1l3-1.1
						c-0.1,1,0.6,0.8,1.4,1.2c-0.5-2,2.3-1.2,3.5-1.8c0,0.7-0.3,1.3-1.8,1.1c1.6,1.6,2.2-2.3,3.8-0.9c-0.4,0-0.6-0.1-0.7,0.2
						c0.9-0.6,2.9,0,2.4,0.6l-0.4,0c2.4,0.3,7.3,0.4,7.8-1.3c0,0.2-0.4,2-0.6,2.4l4.6-5.5c-0.5,1.4,0.8,5-1.2,5.7
						c0.6,0.2,1.3,0.5,2.5,0.1c-0.4-0.2-0.9-2.2-0.3-2.3c1.4,1.7,1,0.9,2.7,2.4c-0.6-0.3,0.2-2.6,1.1-2.5c-0.2,0.3,0,2.3-0.4,2.5
						l2.4-2.1c-0.6,0.4-0.2,1.9,0.3,2.6c-0.2-0.5,2,0.1,2.6,0l-0.9-0.6c2.6,0.5,2.8-3,5.3-2.8c-0.3,0.4-0.9,2.8,0.4,3.2
						c0.7-1.1,3-5.4,5.3-6.1l0.4,0.7l1.8-0.6c-1.2,1.7-4.5,5.1-6.2,6.4c0.9,0.6,0.2,0.8,1.7,0.8c0.5,0.6-0.9,0.9-1.3,0.9l3.4,0.6
						c-0.1-1.4,2.7-1.2,2.6-2.3l-3.8,1.2c-0.1-1.3,2.4-3.7,4.8-3.3c0.6,0.6-0.6,2.4-0.6,2.8c0.3-0.4,2.3-0.7,2.5-0.4l-1.1,0.7
						c1.3,0.6,2.3-1.6,3.8-0.3c0.5,0.1,1.5,1.8,1.7,1c-0.8-1.6-0.7-6.3,0-7.4c0.2,0.1,2.8,1.7,3.4,2.5c0.8,1.3-1.6,2.8-0.9,3.9
						c0.1-0.4,0.6-0.8,0.8-0.9c0.6,0.4-0.3,1.1,1,1c0.3-1.3,2.6,0.3,0.7-1.1c1.3-0.3,1.3,0.4,2.8,0.4c-0.4-0.9,1.5-2.9,2.8-3.2
						c-0.1,0.3,0.1,0.8,0.3,1c2.5,0.3,3.9,1,6.2,1.2c0.2,0.3,1.3,0.8,0.8,1.4c0.4-0.2,0.7-0.7,1.4-0.6c1.3,1.3-1.6,0.1-0.7,1.6
						c0.2-0.8,2-0.9,3-1.4c-0.2-1.2-2.4-0.4-3.5,0c0.1-1.7,2.1-3.3,4.6-3.9c2-0.3,0.8,1.2,1.1,0.9c3.7,0.6,3.4-2.7,6.4-1.2
						c1.1,1.2-0.1,2.1,0.1,2.9c-1.6,0.3-2.4-0.9-3.5-0.9l1.3,0.6c-0.5,0.3-1.6,0.5-2.2,0.2c0.9,1,6.2,0.7,9,1.8
						c0.5-0.3,1.4-0.6,1.1-1.1l-0.9,0.1c-0.8-0.9,1.8-1,0.7-1.6c1.3-0.5,2.7-1.3,4.4-0.7l0.2,1.3c0-0.4-1.1-0.8-1.6-0.5
						c0.8-0.5,2.5,1.9,3.4,0.3l-1.1-1c1.3-0.5,2.9-1.7,4.4-1.2c-0.6-1.3-0.4,0.1-1.3-1.4c0.8,1.8-3.9-0.4-2.5,1.6
						c-1-1.7-1.8-0.9-3.2-2.4c0,0.4,0.4,0.8-0.8,0.5c-0.1,0.1-0.2,0.3-0.3,0.3c0,0-0.1,0-0.1,0c0,0,0,0,0.1,0.1
						c-0.1,0.1-0.1,0.1,0,0c0.3,0.2,0.5,0.4,0.6,0.7c-0.7,0.9-2.7,0.7-3.4,1.1c-0.7-0.3,0.4-0.4,0-0.9l-1.1,0.6c0-0.9-1.9-1.6-0.1-2
						l-1.6-0.2c-0.9-0.6-2.2-0.9-3-0.6c-0.7-0.3-2,0.8-1.3,0.2l-2.6,0.4l0-0.2c-2.5-0.3-5.2,1.1-7.9-0.7c-0.9,0.2-1.7,0.4-3.1,0
						l-0.2-0.8c-1.1,0.2-3.2-1-3.7-0.2c-1-2.2-5.2-0.8-7-1.3l-0.1,1c-1.3-0.1-2.6,0.1-4.2,0.4l0,0.9c-1.4,0.6-3.5-0.9-5.7-0.9
						c0.2-0.3,0.7-0.2,1.1,0c-2.5-2.2-5.6,1.1-7.9-0.5c-0.6,0.3-1,0.2-1.4-0.1c0.1,0,0.1,0,0.1,0c-0.1,0-0.2,0-0.2,0
						c-0.3-0.2-0.5-0.4-0.8-0.5c0.2,0.2,0.5,0.4,0.7,0.5c-0.5,0-1.2,0.1-1.9,0.3l-0.2-1c-0.1,0-0.1,0-0.2,0
						c-0.6-0.4-0.6,0.4-0.2,1.2c-0.4,0.1-0.7,0.3-0.9,0.5c-0.5-1.6-1.8,0.4-2.5-1.3c-0.5,0.8-3.5,0.4-3.9,2.1c0-0.2-0.2-0.3,0.2-0.3
						c-0.7-0.2-1.5-0.5-2.2,0l-0.3-1.2l-1.7,1.6c-1-0.8-1.4-1.3-0.3-2.1c-2.5,1.3-2,0.4-4.1,1.8l0.1-0.8c-0.7,0-2,1-2.4,0.3
						c-1.6-1.6-8.1-0.5-12.3-2.1c0.7,2.4-1.9-1.1-2.2,0.7c-0.2-0.6-0.8-0.9-0.1-1.3c-2.2,0.5-3.2-1-4.7,0.5
						c-0.2-0.6,0.5-0.8,0.3-1.1c-0.2,0.1-0.7,0.5-0.9,0.1c-0.2-0.3,0.3-0.4,0.7-0.7c-2.2,0-2.5,1.7-2.7,3.3
						c-1.1-0.8-1.6-0.7-2.5,0.3c-0.4-0.5-1-1.1,0.4-1.2c-0.8-0.1-4.7-0.9-4.8,0.4c-0.2-0.3-1.1-0.1-1.3,0c-1.7-0.1-1.9-0.2-3.6-0.2
						l0.5,0.2c-0.7,1.5-1.4,0.3-2.8,0.5l0-0.2c-3.1-1.2-1.4,0.5-4.4-0.9l0.1,1c-0.3,2.1-2.7-1.3-4.5-0.5l0.6,0.6
						c-1,0.7-2.7-2.8-3.7-3.1c-0.2-0.2,0.3-0.3,0.6-0.4c-2.6-1.3-0.4,1.3-2.3,1.5c-0.3-0.7,0.5-1.7-0.8-1.9
						c-0.6-0.6-3.8,2.2-5.5,0.8c0.4,0.5,0.8,1.1-0.1,1.4c-1.4,0.2-3.7-2-4.9-0.4c-0.2-0.1-0.2-0.3-0.2-0.4c-1,0.4-3.4,0.7-4,1.6
						c-1-3.3-6.5,1.6-6.5-1.4l-3.2,0.2l0.1-0.3c-2.1-0.2-2.8,0.5-3.5,1.3c-0.5-0.2-0.1-0.5-0.1-0.7c-3-0.6-3.3-0.5-5.8,1.1l-0.3-1
						c-0.7,0.6-4.4-1.5-7.3-0.3c0-0.1,0.1-0.3,0.3-0.5c-3.3,1.2-8-2.6-9.1,1.1l-2.2,1c2.8,0.2-0.4,1.6,0.8,2.1
						c-1.1,0.2-2.9-1-1.5-1.2L98,5.7c0.4-1.9-3.5-0.5-3.5-1.8c-2.8,0.1-5.5,0-8.2-0.2c-2.7-0.1-5.4-0.3-8-0.2L78.9,5l-1.8,0
						c-0.5-0.3-0.7-1.1,0.6-1.1C77,3.1,75.6,4.7,75.6,5c-2.6-0.5,0.9-1.8,0.1-1.7l-1.1,0.2l0.2,0.2c-0.8,0.6-0.9,1.3-2.4,1.3
						c-1-0.2-0.6-0.9-0.9-0.9c0-0.1-0.1-0.1-0.6,0c0,0-0.6,0-1.1,0c-0.6,0-1.1,0-1.1,0l1,1.1c-1,0.6-2.2,0.1-1,1.3
						C66.9,4.5,60,6.2,59,5.7c-1.4,0.9-2.8,1-4.5,1c0.4,0.2,0.8,1.5-0.7,1.4c0.3-2.7-2.8-0.9-4.2-2.7c1.2,1.2-4.2,0.7-2.4,2.3
						c-1.3-0.1-0.2-1-1.2-1.5c-1.4,0.6-3.1,0.6-4.8,0.5c-1.7-0.1-3.6-0.2-5.4,0.1c0,0.4,0.6,0.8-0.1,1.4l-2.1-1.5
						c-0.7,0.2-0.4,2.1-1.9,1c0.2,0.3,0.5,0.7,0.1,0.9c-1.8-0.2-3.7-0.2-5.5,0c-1.8,0.2-3.6,0.6-5.5,0.9c-3.7,0.6-7.4,1.1-11.2,0
						c1.1,0.5,0.4,0.7-0.3,0.8c0.5,0.1,0.1,0.9,0.3,1.3l-3.2-0.9c-0.4,1.4-3.2,0.6-3.4,1.9L4,12.4c-1.1,1.7,2.3,3,2.4,4.9
						c1.2-1.9,4.1,1.9,6.1-0.8c0.6,0.3-0.4,0.7,0,1.1c0.5-0.9,1.2-1.2,2.5-1l-0.1,0.2c3.7-0.7,5.4-0.1,9.6-0.1l-0.4-0.9
						c0.9,0,1.1,0.3,1.6,0.5c0.9-1.6-2.5,0.2-1.8-1.5c0.7,0.9,2.3,0.7,3.8,0.5c1.5-0.1,3-0.2,3.6,0.8c1.4-0.1-0.5-1,0.9-1.2l0.4,0.5
						l0.3-0.8c0.9,0,1.5,0.7,1.5,1.2c-0.2,0-0.6,0.2-0.8,0.3c1.2,0.6,3.3-0.6,3.7-0.4l-1.4-0.2c1.9-0.5,4-0.7,6-0.9
						c2.1-0.2,4.1-0.5,5.9-1.3l-0.3-0.4c2.7-1.1,2.3,0.3,5.3-0.4l-0.1,0.1c0.6-0.5,1.4-0.8,2.2-0.8c-0.7,0.6,1.5,0.9,0.6,1.6
						c3-1.1,1.4-0.8,3.3-2.6l0.5,0.7c0.6-0.7,0.7-1.1,2.2-1.4c-1.2,0.7,1.1,1.1-0.3,2c3.3,1.4,4.7-2,6.3,0.3
						c1.3-2.2-2.9-0.9-2.1-1.4c-0.7-0.6,1.1-1.6,2.1-1.5c1,0,1.9,2.5,4.5,2.3c-0.3,0-0.3,0.2-0.5,0.2c1,0.5,1.9-0.8,3.1,0
						c0.6-1.3,1.5,0,1.7-1.6L74,11.1c1.3-0.5,2.5-2.4,4.8-1.6c-0.2,0.3-0.8,0.8-1.2,1c0.7,0.4,1.2-0.4,1.9,0.1
						c-0.1,1.6-2.9,0.5-4.2,1.8c0.7,0.6,2.7-1.3,2,0.5c0.9-2.2,2.6,0.1,4.2-1.6l-0.1,1c0.3-0.2,0.8-0.6,1.3-0.6l-0.9,1.3
						c1.4-1.1,2.8,0.8,4.1,0.1c-2.8,0.2-0.7-1.1-1.9-1.7c3.5-1.5,2.1,2.4,6,1.8c-0.5,0.2-2-0.5-1.2-1c0.8,0.2,1.8,0.5,2.2,1
						c2.6-0.3-0.4-1,0.7-1.6c0.9,1.1,1.3-0.5,2.4-0.9l0,1c3,0.5,0.7-2,3.4-1.4l-1.1,1.4l1.4-0.4l-0.3,1.1c1.5-0.9,2-0.7,3.5-0.4
						c-0.4-0.7,0.1-1.8,1.5-1.8c0.9,0.6-0.5,0.9,1.4,0.8c-0.4,0.6-0.8,1.4-1.7,0.5c-0.1,0.3-0.4,0.6-0.5,0.9c1,0.6,2.4,0.1,3.1,0.1
						c-0.3,0-0.6-0.1-0.7-0.2l2.7-1.4c0.4,0.4,0.1,0.7-0.2,0.9c0.5-0.1,0.9-0.6,1.7-0.7c-0.2,0.8-0.1,1.6-1.3,2l2.6-0.9
						c0.2,0.3,1.3,0.9,1,1.2c1.4,0.4,3.5-1.6,5.4-1c0.1-0.2,0.3-0.3,0.7-0.4c1.8,0.1,3.4,1.1,5.5,0l1.2,1.4c1.7-0.3-1.6-1.8,1.1-2.3
						c1.9-0.5,0.7,1.2,1.4,1.6c1-0.7,2.6-2.2,4.4-1C129.8,11.6,129.4,11.4,128.8,11.5z M149.2,11c-0.4,0.2-1.2,0.8-1.5,0.2
						C148.2,10.2,148.5,10.7,149.2,11z M180.3,9.5c-0.3,0.3-0.8,0.1-1.3-0.3C179.5,9.2,179.9,9.2,180.3,9.5z M267.4,7.9
						C267.4,7.9,267.4,8,267.4,7.9C266.5,7.5,266.8,7.7,267.4,7.9z M269.2,8.5c0.2-0.1,0.2-0.3,0.1-0.4c-0.1,0.2-0.6,0.2-1,0.1
						C268.4,8.5,268.7,8.7,269.2,8.5z M71.3,4.3l0.4,0.2C70.9,4.9,71.1,4.6,71.3,4.3z"/>
					<path d="M176.8,10.7c-0.1-0.2-0.1-0.3-0.2-0.5C176.5,10.3,176.5,10.5,176.8,10.7z"/>
					<path d="M116.1,12.1C116.1,12.1,116.1,12.1,116.1,12.1c-0.1,0-0.1,0.1-0.1,0.2L116.1,12.1z"/>
					<path d="M240.2,14.5c-0.4-0.2-0.6-0.4-0.7-0.5C239.5,14.2,239.6,14.4,240.2,14.5z"/>
					<path d="M279.1,7.7l-1.2,0.1c0.6,0,0.8,0.2,1,0.4C278.9,8,278.7,7.7,279.1,7.7z"/>
					<path d="M288.8,14.5c0.2-0.1,0.4,0,0.5-0.1l0-0.5C288.6,13.9,288,14.3,288.8,14.5z"/>
					<path d="M279.9,11c0,0.8,0.8,0.6,1.6,0.5c0,0-0.1,0-0.1,0C281.7,10.4,280.8,10.7,279.9,11z"/>
					<path d="M281.7,11.5c0.3,0,0.5,0,0.8,0C282.6,11.1,282.2,11.4,281.7,11.5z"/>
					<path d="M271.6,8.1c0.4,0.2,0.3-1,0.5-0.7C272.6,6.5,269.4,8.5,271.6,8.1z"/>
					<polygon points="280.3,13.7 280.1,12.7 279.6,13.4 					"/>
					<path d="M273.9,12.4l1.3,0.4c0-0.2,0.2-0.3,0.4-0.3C274.8,12.4,273.9,12.1,273.9,12.4z"/>
					<path d="M275.6,12.5c0.4,0.1,0.8,0.1,1.1-0.1C276.4,12.4,275.9,12.4,275.6,12.5z"/>
					<polygon points="278.5,13.8 278.1,13.6 277.2,13.4 					"/>
					<path d="M259.8,11.1l-1.5,0.2c-0.2,0.3,0.2,0.6,0.7,0.5C259.4,11.5,260,11.4,259.8,11.1z"/>
					<path d="M263.9,14.2c-0.4-0.2-0.4-0.5-0.6-0.8l-0.1,1.2L263.9,14.2z"/>
					<path d="M259.7,14.1c-0.2,0.3-2.2,0.8-0.3,0.9C259.5,14.7,261,14.5,259.7,14.1z"/>
					<polygon points="238.2,11 238.6,11 238.7,9 					"/>
					<path d="M218.9,14.6c1.7,0.6,0.5-1.2,2-0.5c0.4-0.5-1.2-0.6-0.8-1C219,13.6,218.5,13.3,218.9,14.6z"/>
					<path d="M220,13.2c0.2-0.1,0.3-0.2,0.5-0.3C220.3,13,220.1,13.1,220,13.2z"/>
					<polygon points="4.3,10.2 3.1,9.9 3.9,10.5 					"/>
					<path d="M2.4,12L2,10.8c0,0-0.1,0.3-0.2,0.6c-0.1,0.2-0.1,0.3-0.2,0.4c0,0.1,0,0.1-0.1,0.1c0,0,0,0,0,0l0,0l0,0l0,0l0.2,0l0,0
						l0,0l-0.2,0l0,0l0,0l0,0l0,0l0,0l0,0l0,0l0.1,0c0,0,0.1,0,0.1,0c0.1,0,0.2,0,0.3-0.1C2.1,11.9,2.3,11.9,2.4,12z"/>
					<path d="M152.2,13.7l0.1-0.3c-0.2-0.3-0.4-0.4-0.9-0.4L152.2,13.7z"/>
					<polygon points="137.4,12.6 137.7,12.6 137.2,11.4 					"/>
					<path d="M125,14.1c0.5,0,1.1-0.2,1.6-0.2C125.5,14.1,124.9,12.6,125,14.1z"/>
				</g>
			</g>
		</g>
	</g>
</g>
</svg>
