<?xml version="1.0" encoding="utf-8"?>
<!-- Generator: Adobe Illustrator 18.1.1, SVG Export Plug-In . SVG Version: 6.00 Build 0)  -->
<svg version="1.1" id="Layer_1" xmlns="http://www.w3.org/2000/svg" xmlns:xlink="http://www.w3.org/1999/xlink" x="0px" y="0px"
	 viewBox="0 0 212 212" enable-background="new 0 0 212 212" xml:space="preserve">
<path fill="#010201" d="M191.2,211H20.7c-9.9,0-18-8-18-18V22.6c0-9.9,8-18,18-18h170.4c9.9,0,18,8,18,18V193
	C209.1,203,201.1,211,191.2,211z"/>
<path fill="#FFFFFF" d="M144.5,125.7v36.6H58.3v-36.6h-13v49.6h112.2v-49.6H144.5z"/>
<path fill="#FFFFFF" d="M70.2,150.5h62.5v-11.8H70.2V150.5z M71.4,122.3l60.7,12.7l2.5-12.1l-60.7-12.7
	C73.9,110.1,71.4,122.3,71.4,122.3z M79.4,93.1l56.2,26.2l5.2-11.2L84.7,81.9L79.4,93.1z M95,65.5l47.7,39.7l8-9.5L102.9,56
	C102.9,56,95,65.5,95,65.5z M125.8,36.2l-10,7.4l37,49.9l10-7.4L125.8,36.2z"/>
</svg>
