<?xml version="1.0" encoding="utf-8"?>
<!-- Generator: Adobe Illustrator 18.1.1, SVG Export Plug-In . SVG Version: 6.00 Build 0)  -->
<svg version="1.1" id="Layer_1" xmlns="http://www.w3.org/2000/svg" xmlns:xlink="http://www.w3.org/1999/xlink" x="0px" y="0px"
	 viewBox="0 0 212 212" enable-background="new 0 0 212 212" xml:space="preserve">
<g>
	<path fill="#010201" d="M188,209H23.3c-11.5,0-20.9-9.3-20.9-20.9V23.5c0-11.5,9.3-20.9,20.9-20.9H188c11.5,0,20.9,9.3,20.9,20.9
		v164.7C208.9,199.7,199.5,209,188,209z"/>
	<g>
		<g>
			<g>
				<path fill="#FFFFFF" d="M86.3,165.2c50.4,0,78-41.8,78-78c0-1.2,0-2.4-0.1-3.5c5.4-3.9,10-8.7,13.7-14.2
					c-4.9,2.2-10.2,3.7-15.7,4.3c5.7-3.4,10-8.8,12-15.2c-5.3,3.1-11.2,5.4-17.4,6.7c-5-5.3-12.1-8.7-20-8.7
					c-15.1,0-27.4,12.3-27.4,27.4c0,2.2,0.2,4.2,0.7,6.2c-22.8-1.1-43-12-56.5-28.6c-2.4,4-3.7,8.8-3.7,13.8
					c0,9.5,4.8,17.9,12.2,22.8c-4.5-0.1-8.7-1.4-12.4-3.4c0,0.1,0,0.2,0,0.3c0,13.3,9.4,24.4,22,26.9c-2.3,0.6-4.7,1-7.2,1
					c-1.8,0-3.5-0.2-5.2-0.5c3.5,10.9,13.6,18.8,25.6,19c-9.4,7.4-21.2,11.7-34,11.7c-2.2,0-4.4-0.1-6.5-0.4
					C56.5,160.7,70.9,165.2,86.3,165.2"/>
			</g>
		</g>
	</g>
</g>
</svg>
